ply
format ascii 1.0
comment synthetic observed-surface fixture; generated, not reconstructed
element vertex 1323
property float x
property float y
property float z
property float nx
property float ny
property float nz
property uchar red
property uchar green
property uchar blue
property float confidence
property uint support_count
property uint source_view_id
end_header
0.000000 0.000000 0.000000 -1.0 0.0 0.0 94 129 172 0.950 4 30
0.000000 0.000000 0.100000 -1.0 0.0 0.0 94 129 172 0.950 4 30
0.000000 0.000000 0.200000 -1.0 0.0 0.0 94 129 172 0.950 4 30
0.000000 0.000000 0.300000 -1.0 0.0 0.0 94 129 172 0.950 4 30
0.000000 0.000000 0.400000 -1.0 0.0 0.0 94 129 172 0.950 4 30
0.000000 0.000000 0.500000 -1.0 0.0 0.0 94 129 172 0.950 4 30
0.000000 0.000000 0.600000 -1.0 0.0 0.0 94 129 172 0.950 4 30
0.000000 0.000000 0.700000 -1.0 0.0 0.0 94 129 172 0.950 4 30
0.000000 0.000000 0.800000 -1.0 0.0 0.0 94 129 172 0.950 4 30
0.000000 0.000000 0.900000 -1.0 0.0 0.0 94 129 172 0.950 4 30
0.000000 0.000000 1.000000 -1.0 0.0 0.0 94 129 172 0.950 4 30
0.000000 0.000000 1.100000 -1.0 0.0 0.0 94 129 172 0.950 4 30
0.000000 0.000000 1.200000 -1.0 0.0 0.0 94 129 172 0.950 4 30
0.000000 0.000000 1.300000 -1.0 0.0 0.0 94 129 172 0.950 4 30
0.000000 0.000000 1.400000 -1.0 0.0 0.0 94 129 172 0.950 4 30
0.000000 0.000000 1.500000 -1.0 0.0 0.0 94 129 172 0.950 4 30
0.000000 0.000000 1.600000 -1.0 0.0 0.0 94 129 172 0.950 4 30
0.000000 0.000000 1.700000 -1.0 0.0 0.0 94 129 172 0.950 4 30
0.000000 0.000000 1.800000 -1.0 0.0 0.0 94 129 172 0.950 4 30
0.000000 0.000000 1.900000 -1.0 0.0 0.0 94 129 172 0.950 4 30
0.000000 0.000000 2.000000 -1.0 0.0 0.0 94 129 172 0.950 4 30
0.000000 0.100000 0.000000 -1.0 0.0 0.0 94 129 172 0.950 4 30
0.000000 0.100000 0.100000 -1.0 0.0 0.0 94 129 172 0.950 4 30
0.000000 0.100000 0.200000 -1.0 0.0 0.0 94 129 172 0.950 4 30
0.000000 0.100000 0.300000 -1.0 0.0 0.0 94 129 172 0.950 4 30
0.000000 0.100000 0.400000 -1.0 0.0 0.0 94 129 172 0.950 4 30
0.000000 0.100000 0.500000 -1.0 0.0 0.0 94 129 172 0.950 4 30
0.000000 0.100000 0.600000 -1.0 0.0 0.0 94 129 172 0.950 4 30
0.000000 0.100000 0.700000 -1.0 0.0 0.0 94 129 172 0.950 4 30
0.000000 0.100000 0.800000 -1.0 0.0 0.0 94 129 172 0.950 4 30
0.000000 0.100000 0.900000 -1.0 0.0 0.0 94 129 172 0.950 4 30
0.000000 0.100000 1.000000 -1.0 0.0 0.0 94 129 172 0.950 4 30
0.000000 0.100000 1.100000 -1.0 0.0 0.0 94 129 172 0.950 4 30
0.000000 0.100000 1.200000 -1.0 0.0 0.0 94 129 172 0.950 4 30
0.000000 0.100000 1.300000 -1.0 0.0 0.0 94 129 172 0.950 4 30
0.000000 0.100000 1.400000 -1.0 0.0 0.0 94 129 172 0.950 4 30
0.000000 0.100000 1.500000 -1.0 0.0 0.0 94 129 172 0.950 4 30
0.000000 0.100000 1.600000 -1.0 0.0 0.0 94 129 172 0.950 4 30
0.000000 0.100000 1.700000 -1.0 0.0 0.0 94 129 172 0.950 4 30
0.000000 0.100000 1.800000 -1.0 0.0 0.0 94 129 172 0.950 4 30
0.000000 0.100000 1.900000 -1.0 0.0 0.0 94 129 172 0.950 4 30
0.000000 0.100000 2.000000 -1.0 0.0 0.0 94 129 172 0.950 4 30
0.000000 0.200000 0.000000 -1.0 0.0 0.0 94 129 172 0.950 4 30
0.000000 0.200000 0.100000 -1.0 0.0 0.0 94 129 172 0.950 4 30
0.000000 0.200000 0.200000 -1.0 0.0 0.0 94 129 172 0.950 4 30
0.000000 0.200000 0.300000 -1.0 0.0 0.0 94 129 172 0.950 4 30
0.000000 0.200000 0.400000 -1.0 0.0 0.0 94 129 172 0.950 4 30
0.000000 0.200000 0.500000 -1.0 0.0 0.0 94 129 172 0.950 4 30
0.000000 0.200000 0.600000 -1.0 0.0 0.0 94 129 172 0.950 4 30
0.000000 0.200000 0.700000 -1.0 0.0 0.0 94 129 172 0.950 4 30
0.000000 0.200000 0.800000 -1.0 0.0 0.0 94 129 172 0.950 4 30
0.000000 0.200000 0.900000 -1.0 0.0 0.0 94 129 172 0.950 4 30
0.000000 0.200000 1.000000 -1.0 0.0 0.0 94 129 172 0.950 4 30
0.000000 0.200000 1.100000 -1.0 0.0 0.0 94 129 172 0.950 4 30
0.000000 0.200000 1.200000 -1.0 0.0 0.0 94 129 172 0.950 4 30
0.000000 0.200000 1.300000 -1.0 0.0 0.0 94 129 172 0.950 4 30
0.000000 0.200000 1.400000 -1.0 0.0 0.0 94 129 172 0.950 4 30
0.000000 0.200000 1.500000 -1.0 0.0 0.0 94 129 172 0.950 4 30
0.000000 0.200000 1.600000 -1.0 0.0 0.0 94 129 172 0.950 4 30
0.000000 0.200000 1.700000 -1.0 0.0 0.0 94 129 172 0.950 4 30
0.000000 0.200000 1.800000 -1.0 0.0 0.0 94 129 172 0.950 4 30
0.000000 0.200000 1.900000 -1.0 0.0 0.0 94 129 172 0.950 4 30
0.000000 0.200000 2.000000 -1.0 0.0 0.0 94 129 172 0.950 4 30
0.000000 0.300000 0.000000 -1.0 0.0 0.0 94 129 172 0.950 4 30
0.000000 0.300000 0.100000 -1.0 0.0 0.0 94 129 172 0.950 4 30
0.000000 0.300000 0.200000 -1.0 0.0 0.0 94 129 172 0.950 4 30
0.000000 0.300000 0.300000 -1.0 0.0 0.0 94 129 172 0.950 4 30
0.000000 0.300000 0.400000 -1.0 0.0 0.0 94 129 172 0.950 4 30
0.000000 0.300000 0.500000 -1.0 0.0 0.0 94 129 172 0.950 4 30
0.000000 0.300000 0.600000 -1.0 0.0 0.0 94 129 172 0.950 4 30
0.000000 0.300000 0.700000 -1.0 0.0 0.0 94 129 172 0.950 4 30
0.000000 0.300000 0.800000 -1.0 0.0 0.0 94 129 172 0.950 4 30
0.000000 0.300000 0.900000 -1.0 0.0 0.0 94 129 172 0.950 4 30
0.000000 0.300000 1.000000 -1.0 0.0 0.0 94 129 172 0.950 4 30
0.000000 0.300000 1.100000 -1.0 0.0 0.0 94 129 172 0.950 4 30
0.000000 0.300000 1.200000 -1.0 0.0 0.0 94 129 172 0.950 4 30
0.000000 0.300000 1.300000 -1.0 0.0 0.0 94 129 172 0.950 4 30
0.000000 0.300000 1.400000 -1.0 0.0 0.0 94 129 172 0.950 4 30
0.000000 0.300000 1.500000 -1.0 0.0 0.0 94 129 172 0.950 4 30
0.000000 0.300000 1.600000 -1.0 0.0 0.0 94 129 172 0.950 4 30
0.000000 0.300000 1.700000 -1.0 0.0 0.0 94 129 172 0.950 4 30
0.000000 0.300000 1.800000 -1.0 0.0 0.0 94 129 172 0.950 4 30
0.000000 0.300000 1.900000 -1.0 0.0 0.0 94 129 172 0.950 4 30
0.000000 0.300000 2.000000 -1.0 0.0 0.0 94 129 172 0.950 4 30
0.000000 0.400000 0.000000 -1.0 0.0 0.0 94 129 172 0.950 4 30
0.000000 0.400000 0.100000 -1.0 0.0 0.0 94 129 172 0.950 4 30
0.000000 0.400000 0.200000 -1.0 0.0 0.0 94 129 172 0.950 4 30
0.000000 0.400000 0.300000 -1.0 0.0 0.0 94 129 172 0.950 4 30
0.000000 0.400000 0.400000 -1.0 0.0 0.0 94 129 172 0.950 4 30
0.000000 0.400000 0.500000 -1.0 0.0 0.0 94 129 172 0.950 4 30
0.000000 0.400000 0.600000 -1.0 0.0 0.0 94 129 172 0.950 4 30
0.000000 0.400000 0.700000 -1.0 0.0 0.0 94 129 172 0.950 4 30
0.000000 0.400000 0.800000 -1.0 0.0 0.0 94 129 172 0.950 4 30
0.000000 0.400000 0.900000 -1.0 0.0 0.0 94 129 172 0.950 4 30
0.000000 0.400000 1.000000 -1.0 0.0 0.0 94 129 172 0.950 4 30
0.000000 0.400000 1.100000 -1.0 0.0 0.0 94 129 172 0.950 4 30
0.000000 0.400000 1.200000 -1.0 0.0 0.0 94 129 172 0.950 4 30
0.000000 0.400000 1.300000 -1.0 0.0 0.0 94 129 172 0.950 4 30
0.000000 0.400000 1.400000 -1.0 0.0 0.0 94 129 172 0.950 4 30
0.000000 0.400000 1.500000 -1.0 0.0 0.0 94 129 172 0.950 4 30
0.000000 0.400000 1.600000 -1.0 0.0 0.0 94 129 172 0.950 4 30
0.000000 0.400000 1.700000 -1.0 0.0 0.0 94 129 172 0.950 4 30
0.000000 0.400000 1.800000 -1.0 0.0 0.0 94 129 172 0.950 4 30
0.000000 0.400000 1.900000 -1.0 0.0 0.0 94 129 172 0.950 4 30
0.000000 0.400000 2.000000 -1.0 0.0 0.0 94 129 172 0.950 4 30
0.000000 0.500000 0.000000 -1.0 0.0 0.0 94 129 172 0.950 4 30
0.000000 0.500000 0.100000 -1.0 0.0 0.0 94 129 172 0.950 4 30
0.000000 0.500000 0.200000 -1.0 0.0 0.0 94 129 172 0.950 4 30
0.000000 0.500000 0.300000 -1.0 0.0 0.0 94 129 172 0.950 4 30
0.000000 0.500000 0.400000 -1.0 0.0 0.0 94 129 172 0.950 4 30
0.000000 0.500000 0.500000 -1.0 0.0 0.0 94 129 172 0.950 4 30
0.000000 0.500000 0.600000 -1.0 0.0 0.0 94 129 172 0.950 4 30
0.000000 0.500000 0.700000 -1.0 0.0 0.0 94 129 172 0.950 4 30
0.000000 0.500000 0.800000 -1.0 0.0 0.0 94 129 172 0.950 4 30
0.000000 0.500000 0.900000 -1.0 0.0 0.0 94 129 172 0.950 4 30
0.000000 0.500000 1.000000 -1.0 0.0 0.0 94 129 172 0.950 4 30
0.000000 0.500000 1.100000 -1.0 0.0 0.0 94 129 172 0.950 4 30
0.000000 0.500000 1.200000 -1.0 0.0 0.0 94 129 172 0.950 4 30
0.000000 0.500000 1.300000 -1.0 0.0 0.0 94 129 172 0.950 4 30
0.000000 0.500000 1.400000 -1.0 0.0 0.0 94 129 172 0.950 4 30
0.000000 0.500000 1.500000 -1.0 0.0 0.0 94 129 172 0.950 4 30
0.000000 0.500000 1.600000 -1.0 0.0 0.0 94 129 172 0.950 4 30
0.000000 0.500000 1.700000 -1.0 0.0 0.0 94 129 172 0.950 4 30
0.000000 0.500000 1.800000 -1.0 0.0 0.0 94 129 172 0.950 4 30
0.000000 0.500000 1.900000 -1.0 0.0 0.0 94 129 172 0.950 4 30
0.000000 0.500000 2.000000 -1.0 0.0 0.0 94 129 172 0.950 4 30
0.000000 0.600000 0.000000 -1.0 0.0 0.0 94 129 172 0.950 4 30
0.000000 0.600000 0.100000 -1.0 0.0 0.0 94 129 172 0.950 4 30
0.000000 0.600000 0.200000 -1.0 0.0 0.0 94 129 172 0.950 4 30
0.000000 0.600000 0.300000 -1.0 0.0 0.0 94 129 172 0.950 4 30
0.000000 0.600000 0.400000 -1.0 0.0 0.0 94 129 172 0.950 4 30
0.000000 0.600000 0.500000 -1.0 0.0 0.0 94 129 172 0.950 4 30
0.000000 0.600000 0.600000 -1.0 0.0 0.0 94 129 172 0.950 4 30
0.000000 0.600000 0.700000 -1.0 0.0 0.0 94 129 172 0.950 4 30
0.000000 0.600000 0.800000 -1.0 0.0 0.0 94 129 172 0.950 4 30
0.000000 0.600000 0.900000 -1.0 0.0 0.0 94 129 172 0.950 4 30
0.000000 0.600000 1.000000 -1.0 0.0 0.0 94 129 172 0.950 4 30
0.000000 0.600000 1.100000 -1.0 0.0 0.0 94 129 172 0.950 4 30
0.000000 0.600000 1.200000 -1.0 0.0 0.0 94 129 172 0.950 4 30
0.000000 0.600000 1.300000 -1.0 0.0 0.0 94 129 172 0.950 4 30
0.000000 0.600000 1.400000 -1.0 0.0 0.0 94 129 172 0.950 4 30
0.000000 0.600000 1.500000 -1.0 0.0 0.0 94 129 172 0.950 4 30
0.000000 0.600000 1.600000 -1.0 0.0 0.0 94 129 172 0.950 4 30
0.000000 0.600000 1.700000 -1.0 0.0 0.0 94 129 172 0.950 4 30
0.000000 0.600000 1.800000 -1.0 0.0 0.0 94 129 172 0.950 4 30
0.000000 0.600000 1.900000 -1.0 0.0 0.0 94 129 172 0.950 4 30
0.000000 0.600000 2.000000 -1.0 0.0 0.0 94 129 172 0.950 4 30
0.000000 0.700000 0.000000 -1.0 0.0 0.0 94 129 172 0.950 4 30
0.000000 0.700000 0.100000 -1.0 0.0 0.0 94 129 172 0.950 4 30
0.000000 0.700000 0.200000 -1.0 0.0 0.0 94 129 172 0.950 4 30
0.000000 0.700000 0.300000 -1.0 0.0 0.0 94 129 172 0.950 4 30
0.000000 0.700000 0.400000 -1.0 0.0 0.0 94 129 172 0.950 4 30
0.000000 0.700000 0.500000 -1.0 0.0 0.0 94 129 172 0.950 4 30
0.000000 0.700000 0.600000 -1.0 0.0 0.0 94 129 172 0.950 4 30
0.000000 0.700000 0.700000 -1.0 0.0 0.0 94 129 172 0.950 4 30
0.000000 0.700000 0.800000 -1.0 0.0 0.0 94 129 172 0.950 4 30
0.000000 0.700000 0.900000 -1.0 0.0 0.0 94 129 172 0.950 4 30
0.000000 0.700000 1.000000 -1.0 0.0 0.0 94 129 172 0.950 4 30
0.000000 0.700000 1.100000 -1.0 0.0 0.0 94 129 172 0.950 4 30
0.000000 0.700000 1.200000 -1.0 0.0 0.0 94 129 172 0.950 4 30
0.000000 0.700000 1.300000 -1.0 0.0 0.0 94 129 172 0.950 4 30
0.000000 0.700000 1.400000 -1.0 0.0 0.0 94 129 172 0.950 4 30
0.000000 0.700000 1.500000 -1.0 0.0 0.0 94 129 172 0.950 4 30
0.000000 0.700000 1.600000 -1.0 0.0 0.0 94 129 172 0.950 4 30
0.000000 0.700000 1.700000 -1.0 0.0 0.0 94 129 172 0.950 4 30
0.000000 0.700000 1.800000 -1.0 0.0 0.0 94 129 172 0.950 4 30
0.000000 0.700000 1.900000 -1.0 0.0 0.0 94 129 172 0.950 4 30
0.000000 0.700000 2.000000 -1.0 0.0 0.0 94 129 172 0.950 4 30
0.000000 0.800000 0.000000 -1.0 0.0 0.0 94 129 172 0.950 4 30
0.000000 0.800000 0.100000 -1.0 0.0 0.0 94 129 172 0.950 4 30
0.000000 0.800000 0.200000 -1.0 0.0 0.0 94 129 172 0.950 4 30
0.000000 0.800000 0.300000 -1.0 0.0 0.0 94 129 172 0.950 4 30
0.000000 0.800000 0.400000 -1.0 0.0 0.0 94 129 172 0.950 4 30
0.000000 0.800000 0.500000 -1.0 0.0 0.0 94 129 172 0.950 4 30
0.000000 0.800000 0.600000 -1.0 0.0 0.0 94 129 172 0.950 4 30
0.000000 0.800000 0.700000 -1.0 0.0 0.0 94 129 172 0.950 4 30
0.000000 0.800000 0.800000 -1.0 0.0 0.0 94 129 172 0.950 4 30
0.000000 0.800000 0.900000 -1.0 0.0 0.0 94 129 172 0.950 4 30
0.000000 0.800000 1.000000 -1.0 0.0 0.0 94 129 172 0.950 4 30
0.000000 0.800000 1.100000 -1.0 0.0 0.0 94 129 172 0.950 4 30
0.000000 0.800000 1.200000 -1.0 0.0 0.0 94 129 172 0.950 4 30
0.000000 0.800000 1.300000 -1.0 0.0 0.0 94 129 172 0.950 4 30
0.000000 0.800000 1.400000 -1.0 0.0 0.0 94 129 172 0.950 4 30
0.000000 0.800000 1.500000 -1.0 0.0 0.0 94 129 172 0.950 4 30
0.000000 0.800000 1.600000 -1.0 0.0 0.0 94 129 172 0.950 4 30
0.000000 0.800000 1.700000 -1.0 0.0 0.0 94 129 172 0.950 4 30
0.000000 0.800000 1.800000 -1.0 0.0 0.0 94 129 172 0.950 4 30
0.000000 0.800000 1.900000 -1.0 0.0 0.0 94 129 172 0.950 4 30
0.000000 0.800000 2.000000 -1.0 0.0 0.0 94 129 172 0.950 4 30
0.000000 0.900000 0.000000 -1.0 0.0 0.0 94 129 172 0.950 4 30
0.000000 0.900000 0.100000 -1.0 0.0 0.0 94 129 172 0.950 4 30
0.000000 0.900000 0.200000 -1.0 0.0 0.0 94 129 172 0.950 4 30
0.000000 0.900000 0.300000 -1.0 0.0 0.0 94 129 172 0.950 4 30
0.000000 0.900000 0.400000 -1.0 0.0 0.0 94 129 172 0.950 4 30
0.000000 0.900000 0.500000 -1.0 0.0 0.0 94 129 172 0.950 4 30
0.000000 0.900000 0.600000 -1.0 0.0 0.0 94 129 172 0.950 4 30
0.000000 0.900000 0.700000 -1.0 0.0 0.0 94 129 172 0.950 4 30
0.000000 0.900000 0.800000 -1.0 0.0 0.0 94 129 172 0.950 4 30
0.000000 0.900000 0.900000 -1.0 0.0 0.0 94 129 172 0.950 4 30
0.000000 0.900000 1.000000 -1.0 0.0 0.0 94 129 172 0.950 4 30
0.000000 0.900000 1.100000 -1.0 0.0 0.0 94 129 172 0.950 4 30
0.000000 0.900000 1.200000 -1.0 0.0 0.0 94 129 172 0.950 4 30
0.000000 0.900000 1.300000 -1.0 0.0 0.0 94 129 172 0.950 4 30
0.000000 0.900000 1.400000 -1.0 0.0 0.0 94 129 172 0.950 4 30
0.000000 0.900000 1.500000 -1.0 0.0 0.0 94 129 172 0.950 4 30
0.000000 0.900000 1.600000 -1.0 0.0 0.0 94 129 172 0.950 4 30
0.000000 0.900000 1.700000 -1.0 0.0 0.0 94 129 172 0.950 4 30
0.000000 0.900000 1.800000 -1.0 0.0 0.0 94 129 172 0.950 4 30
0.000000 0.900000 1.900000 -1.0 0.0 0.0 94 129 172 0.950 4 30
0.000000 0.900000 2.000000 -1.0 0.0 0.0 94 129 172 0.950 4 30
0.000000 1.000000 0.000000 -1.0 0.0 0.0 94 129 172 0.950 4 30
0.000000 1.000000 0.100000 -1.0 0.0 0.0 94 129 172 0.950 4 30
0.000000 1.000000 0.200000 -1.0 0.0 0.0 94 129 172 0.950 4 30
0.000000 1.000000 0.300000 -1.0 0.0 0.0 94 129 172 0.950 4 30
0.000000 1.000000 0.400000 -1.0 0.0 0.0 94 129 172 0.950 4 30
0.000000 1.000000 0.500000 -1.0 0.0 0.0 94 129 172 0.950 4 30
0.000000 1.000000 0.600000 -1.0 0.0 0.0 94 129 172 0.950 4 30
0.000000 1.000000 0.700000 -1.0 0.0 0.0 94 129 172 0.950 4 30
0.000000 1.000000 0.800000 -1.0 0.0 0.0 94 129 172 0.950 4 30
0.000000 1.000000 0.900000 -1.0 0.0 0.0 94 129 172 0.950 4 30
0.000000 1.000000 1.000000 -1.0 0.0 0.0 94 129 172 0.950 4 30
0.000000 1.000000 1.100000 -1.0 0.0 0.0 94 129 172 0.950 4 30
0.000000 1.000000 1.200000 -1.0 0.0 0.0 94 129 172 0.950 4 30
0.000000 1.000000 1.300000 -1.0 0.0 0.0 94 129 172 0.950 4 30
0.000000 1.000000 1.400000 -1.0 0.0 0.0 94 129 172 0.950 4 30
0.000000 1.000000 1.500000 -1.0 0.0 0.0 94 129 172 0.950 4 30
0.000000 1.000000 1.600000 -1.0 0.0 0.0 94 129 172 0.950 4 30
0.000000 1.000000 1.700000 -1.0 0.0 0.0 94 129 172 0.950 4 30
0.000000 1.000000 1.800000 -1.0 0.0 0.0 94 129 172 0.950 4 30
0.000000 1.000000 1.900000 -1.0 0.0 0.0 94 129 172 0.950 4 30
0.000000 1.000000 2.000000 -1.0 0.0 0.0 94 129 172 0.950 4 30
0.000000 1.100000 0.000000 -1.0 0.0 0.0 94 129 172 0.950 4 30
0.000000 1.100000 0.100000 -1.0 0.0 0.0 94 129 172 0.950 4 30
0.000000 1.100000 0.200000 -1.0 0.0 0.0 94 129 172 0.950 4 30
0.000000 1.100000 0.300000 -1.0 0.0 0.0 94 129 172 0.950 4 30
0.000000 1.100000 0.400000 -1.0 0.0 0.0 94 129 172 0.950 4 30
0.000000 1.100000 0.500000 -1.0 0.0 0.0 94 129 172 0.950 4 30
0.000000 1.100000 0.600000 -1.0 0.0 0.0 94 129 172 0.950 4 30
0.000000 1.100000 0.700000 -1.0 0.0 0.0 94 129 172 0.950 4 30
0.000000 1.100000 0.800000 -1.0 0.0 0.0 94 129 172 0.950 4 30
0.000000 1.100000 0.900000 -1.0 0.0 0.0 94 129 172 0.950 4 30
0.000000 1.100000 1.000000 -1.0 0.0 0.0 94 129 172 0.950 4 30
0.000000 1.100000 1.100000 -1.0 0.0 0.0 94 129 172 0.950 4 30
0.000000 1.100000 1.200000 -1.0 0.0 0.0 94 129 172 0.950 4 30
0.000000 1.100000 1.300000 -1.0 0.0 0.0 94 129 172 0.950 4 30
0.000000 1.100000 1.400000 -1.0 0.0 0.0 94 129 172 0.950 4 30
0.000000 1.100000 1.500000 -1.0 0.0 0.0 94 129 172 0.950 4 30
0.000000 1.100000 1.600000 -1.0 0.0 0.0 94 129 172 0.950 4 30
0.000000 1.100000 1.700000 -1.0 0.0 0.0 94 129 172 0.950 4 30
0.000000 1.100000 1.800000 -1.0 0.0 0.0 94 129 172 0.950 4 30
0.000000 1.100000 1.900000 -1.0 0.0 0.0 94 129 172 0.950 4 30
0.000000 1.100000 2.000000 -1.0 0.0 0.0 94 129 172 0.950 4 30
0.000000 1.200000 0.000000 -1.0 0.0 0.0 94 129 172 0.950 4 30
0.000000 1.200000 0.100000 -1.0 0.0 0.0 94 129 172 0.950 4 30
0.000000 1.200000 0.200000 -1.0 0.0 0.0 94 129 172 0.950 4 30
0.000000 1.200000 0.300000 -1.0 0.0 0.0 94 129 172 0.950 4 30
0.000000 1.200000 0.400000 -1.0 0.0 0.0 94 129 172 0.950 4 30
0.000000 1.200000 0.500000 -1.0 0.0 0.0 94 129 172 0.950 4 30
0.000000 1.200000 0.600000 -1.0 0.0 0.0 94 129 172 0.950 4 30
0.000000 1.200000 0.700000 -1.0 0.0 0.0 94 129 172 0.950 4 30
0.000000 1.200000 0.800000 -1.0 0.0 0.0 94 129 172 0.950 4 30
0.000000 1.200000 0.900000 -1.0 0.0 0.0 94 129 172 0.950 4 30
0.000000 1.200000 1.000000 -1.0 0.0 0.0 94 129 172 0.950 4 30
0.000000 1.200000 1.100000 -1.0 0.0 0.0 94 129 172 0.950 4 30
0.000000 1.200000 1.200000 -1.0 0.0 0.0 94 129 172 0.950 4 30
0.000000 1.200000 1.300000 -1.0 0.0 0.0 94 129 172 0.950 4 30
0.000000 1.200000 1.400000 -1.0 0.0 0.0 94 129 172 0.950 4 30
0.000000 1.200000 1.500000 -1.0 0.0 0.0 94 129 172 0.950 4 30
0.000000 1.200000 1.600000 -1.0 0.0 0.0 94 129 172 0.950 4 30
0.000000 1.200000 1.700000 -1.0 0.0 0.0 94 129 172 0.950 4 30
0.000000 1.200000 1.800000 -1.0 0.0 0.0 94 129 172 0.950 4 30
0.000000 1.200000 1.900000 -1.0 0.0 0.0 94 129 172 0.950 4 30
0.000000 1.200000 2.000000 -1.0 0.0 0.0 94 129 172 0.950 4 30
0.000000 1.300000 0.000000 -1.0 0.0 0.0 94 129 172 0.950 4 30
0.000000 1.300000 0.100000 -1.0 0.0 0.0 94 129 172 0.950 4 30
0.000000 1.300000 0.200000 -1.0 0.0 0.0 94 129 172 0.950 4 30
0.000000 1.300000 0.300000 -1.0 0.0 0.0 94 129 172 0.950 4 30
0.000000 1.300000 0.400000 -1.0 0.0 0.0 94 129 172 0.950 4 30
0.000000 1.300000 0.500000 -1.0 0.0 0.0 94 129 172 0.950 4 30
0.000000 1.300000 0.600000 -1.0 0.0 0.0 94 129 172 0.950 4 30
0.000000 1.300000 0.700000 -1.0 0.0 0.0 94 129 172 0.950 4 30
0.000000 1.300000 0.800000 -1.0 0.0 0.0 94 129 172 0.950 4 30
0.000000 1.300000 0.900000 -1.0 0.0 0.0 94 129 172 0.950 4 30
0.000000 1.300000 1.000000 -1.0 0.0 0.0 94 129 172 0.950 4 30
0.000000 1.300000 1.100000 -1.0 0.0 0.0 94 129 172 0.950 4 30
0.000000 1.300000 1.200000 -1.0 0.0 0.0 94 129 172 0.950 4 30
0.000000 1.300000 1.300000 -1.0 0.0 0.0 94 129 172 0.950 4 30
0.000000 1.300000 1.400000 -1.0 0.0 0.0 94 129 172 0.950 4 30
0.000000 1.300000 1.500000 -1.0 0.0 0.0 94 129 172 0.950 4 30
0.000000 1.300000 1.600000 -1.0 0.0 0.0 94 129 172 0.950 4 30
0.000000 1.300000 1.700000 -1.0 0.0 0.0 94 129 172 0.950 4 30
0.000000 1.300000 1.800000 -1.0 0.0 0.0 94 129 172 0.950 4 30
0.000000 1.300000 1.900000 -1.0 0.0 0.0 94 129 172 0.950 4 30
0.000000 1.300000 2.000000 -1.0 0.0 0.0 94 129 172 0.950 4 30
0.000000 1.400000 0.000000 -1.0 0.0 0.0 94 129 172 0.950 4 30
0.000000 1.400000 0.100000 -1.0 0.0 0.0 94 129 172 0.950 4 30
0.000000 1.400000 0.200000 -1.0 0.0 0.0 94 129 172 0.950 4 30
0.000000 1.400000 0.300000 -1.0 0.0 0.0 94 129 172 0.950 4 30
0.000000 1.400000 0.400000 -1.0 0.0 0.0 94 129 172 0.950 4 30
0.000000 1.400000 0.500000 -1.0 0.0 0.0 94 129 172 0.950 4 30
0.000000 1.400000 0.600000 -1.0 0.0 0.0 94 129 172 0.950 4 30
0.000000 1.400000 0.700000 -1.0 0.0 0.0 94 129 172 0.950 4 30
0.000000 1.400000 0.800000 -1.0 0.0 0.0 94 129 172 0.950 4 30
0.000000 1.400000 0.900000 -1.0 0.0 0.0 94 129 172 0.950 4 30
0.000000 1.400000 1.000000 -1.0 0.0 0.0 94 129 172 0.950 4 30
0.000000 1.400000 1.100000 -1.0 0.0 0.0 94 129 172 0.950 4 30
0.000000 1.400000 1.200000 -1.0 0.0 0.0 94 129 172 0.950 4 30
0.000000 1.400000 1.300000 -1.0 0.0 0.0 94 129 172 0.950 4 30
0.000000 1.400000 1.400000 -1.0 0.0 0.0 94 129 172 0.950 4 30
0.000000 1.400000 1.500000 -1.0 0.0 0.0 94 129 172 0.950 4 30
0.000000 1.400000 1.600000 -1.0 0.0 0.0 94 129 172 0.950 4 30
0.000000 1.400000 1.700000 -1.0 0.0 0.0 94 129 172 0.950 4 30
0.000000 1.400000 1.800000 -1.0 0.0 0.0 94 129 172 0.950 4 30
0.000000 1.400000 1.900000 -1.0 0.0 0.0 94 129 172 0.950 4 30
0.000000 1.400000 2.000000 -1.0 0.0 0.0 94 129 172 0.950 4 30
0.000000 1.500000 0.000000 -1.0 0.0 0.0 94 129 172 0.950 4 30
0.000000 1.500000 0.100000 -1.0 0.0 0.0 94 129 172 0.950 4 30
0.000000 1.500000 0.200000 -1.0 0.0 0.0 94 129 172 0.950 4 30
0.000000 1.500000 0.300000 -1.0 0.0 0.0 94 129 172 0.950 4 30
0.000000 1.500000 0.400000 -1.0 0.0 0.0 94 129 172 0.950 4 30
0.000000 1.500000 0.500000 -1.0 0.0 0.0 94 129 172 0.950 4 30
0.000000 1.500000 0.600000 -1.0 0.0 0.0 94 129 172 0.950 4 30
0.000000 1.500000 0.700000 -1.0 0.0 0.0 94 129 172 0.950 4 30
0.000000 1.500000 0.800000 -1.0 0.0 0.0 94 129 172 0.950 4 30
0.000000 1.500000 0.900000 -1.0 0.0 0.0 94 129 172 0.950 4 30
0.000000 1.500000 1.000000 -1.0 0.0 0.0 94 129 172 0.950 4 30
0.000000 1.500000 1.100000 -1.0 0.0 0.0 94 129 172 0.950 4 30
0.000000 1.500000 1.200000 -1.0 0.0 0.0 94 129 172 0.950 4 30
0.000000 1.500000 1.300000 -1.0 0.0 0.0 94 129 172 0.950 4 30
0.000000 1.500000 1.400000 -1.0 0.0 0.0 94 129 172 0.950 4 30
0.000000 1.500000 1.500000 -1.0 0.0 0.0 94 129 172 0.950 4 30
0.000000 1.500000 1.600000 -1.0 0.0 0.0 94 129 172 0.950 4 30
0.000000 1.500000 1.700000 -1.0 0.0 0.0 94 129 172 0.950 4 30
0.000000 1.500000 1.800000 -1.0 0.0 0.0 94 129 172 0.950 4 30
0.000000 1.500000 1.900000 -1.0 0.0 0.0 94 129 172 0.950 4 30
0.000000 1.500000 2.000000 -1.0 0.0 0.0 94 129 172 0.950 4 30
0.000000 1.600000 0.000000 -1.0 0.0 0.0 94 129 172 0.950 4 30
0.000000 1.600000 0.100000 -1.0 0.0 0.0 94 129 172 0.950 4 30
0.000000 1.600000 0.200000 -1.0 0.0 0.0 94 129 172 0.950 4 30
0.000000 1.600000 0.300000 -1.0 0.0 0.0 94 129 172 0.950 4 30
0.000000 1.600000 0.400000 -1.0 0.0 0.0 94 129 172 0.950 4 30
0.000000 1.600000 0.500000 -1.0 0.0 0.0 94 129 172 0.950 4 30
0.000000 1.600000 0.600000 -1.0 0.0 0.0 94 129 172 0.950 4 30
0.000000 1.600000 0.700000 -1.0 0.0 0.0 94 129 172 0.950 4 30
0.000000 1.600000 0.800000 -1.0 0.0 0.0 94 129 172 0.950 4 30
0.000000 1.600000 0.900000 -1.0 0.0 0.0 94 129 172 0.950 4 30
0.000000 1.600000 1.000000 -1.0 0.0 0.0 94 129 172 0.950 4 30
0.000000 1.600000 1.100000 -1.0 0.0 0.0 94 129 172 0.950 4 30
0.000000 1.600000 1.200000 -1.0 0.0 0.0 94 129 172 0.950 4 30
0.000000 1.600000 1.300000 -1.0 0.0 0.0 94 129 172 0.950 4 30
0.000000 1.600000 1.400000 -1.0 0.0 0.0 94 129 172 0.950 4 30
0.000000 1.600000 1.500000 -1.0 0.0 0.0 94 129 172 0.950 4 30
0.000000 1.600000 1.600000 -1.0 0.0 0.0 94 129 172 0.950 4 30
0.000000 1.600000 1.700000 -1.0 0.0 0.0 94 129 172 0.950 4 30
0.000000 1.600000 1.800000 -1.0 0.0 0.0 94 129 172 0.950 4 30
0.000000 1.600000 1.900000 -1.0 0.0 0.0 94 129 172 0.950 4 30
0.000000 1.600000 2.000000 -1.0 0.0 0.0 94 129 172 0.950 4 30
0.000000 1.700000 0.000000 -1.0 0.0 0.0 94 129 172 0.950 4 30
0.000000 1.700000 0.100000 -1.0 0.0 0.0 94 129 172 0.950 4 30
0.000000 1.700000 0.200000 -1.0 0.0 0.0 94 129 172 0.950 4 30
0.000000 1.700000 0.300000 -1.0 0.0 0.0 94 129 172 0.950 4 30
0.000000 1.700000 0.400000 -1.0 0.0 0.0 94 129 172 0.950 4 30
0.000000 1.700000 0.500000 -1.0 0.0 0.0 94 129 172 0.950 4 30
0.000000 1.700000 0.600000 -1.0 0.0 0.0 94 129 172 0.950 4 30
0.000000 1.700000 0.700000 -1.0 0.0 0.0 94 129 172 0.950 4 30
0.000000 1.700000 0.800000 -1.0 0.0 0.0 94 129 172 0.950 4 30
0.000000 1.700000 0.900000 -1.0 0.0 0.0 94 129 172 0.950 4 30
0.000000 1.700000 1.000000 -1.0 0.0 0.0 94 129 172 0.950 4 30
0.000000 1.700000 1.100000 -1.0 0.0 0.0 94 129 172 0.950 4 30
0.000000 1.700000 1.200000 -1.0 0.0 0.0 94 129 172 0.950 4 30
0.000000 1.700000 1.300000 -1.0 0.0 0.0 94 129 172 0.950 4 30
0.000000 1.700000 1.400000 -1.0 0.0 0.0 94 129 172 0.950 4 30
0.000000 1.700000 1.500000 -1.0 0.0 0.0 94 129 172 0.950 4 30
0.000000 1.700000 1.600000 -1.0 0.0 0.0 94 129 172 0.950 4 30
0.000000 1.700000 1.700000 -1.0 0.0 0.0 94 129 172 0.950 4 30
0.000000 1.700000 1.800000 -1.0 0.0 0.0 94 129 172 0.950 4 30
0.000000 1.700000 1.900000 -1.0 0.0 0.0 94 129 172 0.950 4 30
0.000000 1.700000 2.000000 -1.0 0.0 0.0 94 129 172 0.950 4 30
0.000000 1.800000 0.000000 -1.0 0.0 0.0 94 129 172 0.950 4 30
0.000000 1.800000 0.100000 -1.0 0.0 0.0 94 129 172 0.950 4 30
0.000000 1.800000 0.200000 -1.0 0.0 0.0 94 129 172 0.950 4 30
0.000000 1.800000 0.300000 -1.0 0.0 0.0 94 129 172 0.950 4 30
0.000000 1.800000 0.400000 -1.0 0.0 0.0 94 129 172 0.950 4 30
0.000000 1.800000 0.500000 -1.0 0.0 0.0 94 129 172 0.950 4 30
0.000000 1.800000 0.600000 -1.0 0.0 0.0 94 129 172 0.950 4 30
0.000000 1.800000 0.700000 -1.0 0.0 0.0 94 129 172 0.950 4 30
0.000000 1.800000 0.800000 -1.0 0.0 0.0 94 129 172 0.950 4 30
0.000000 1.800000 0.900000 -1.0 0.0 0.0 94 129 172 0.950 4 30
0.000000 1.800000 1.000000 -1.0 0.0 0.0 94 129 172 0.950 4 30
0.000000 1.800000 1.100000 -1.0 0.0 0.0 94 129 172 0.950 4 30
0.000000 1.800000 1.200000 -1.0 0.0 0.0 94 129 172 0.950 4 30
0.000000 1.800000 1.300000 -1.0 0.0 0.0 94 129 172 0.950 4 30
0.000000 1.800000 1.400000 -1.0 0.0 0.0 94 129 172 0.950 4 30
0.000000 1.800000 1.500000 -1.0 0.0 0.0 94 129 172 0.950 4 30
0.000000 1.800000 1.600000 -1.0 0.0 0.0 94 129 172 0.950 4 30
0.000000 1.800000 1.700000 -1.0 0.0 0.0 94 129 172 0.950 4 30
0.000000 1.800000 1.800000 -1.0 0.0 0.0 94 129 172 0.950 4 30
0.000000 1.800000 1.900000 -1.0 0.0 0.0 94 129 172 0.950 4 30
0.000000 1.800000 2.000000 -1.0 0.0 0.0 94 129 172 0.950 4 30
0.000000 1.900000 0.000000 -1.0 0.0 0.0 94 129 172 0.950 4 30
0.000000 1.900000 0.100000 -1.0 0.0 0.0 94 129 172 0.950 4 30
0.000000 1.900000 0.200000 -1.0 0.0 0.0 94 129 172 0.950 4 30
0.000000 1.900000 0.300000 -1.0 0.0 0.0 94 129 172 0.950 4 30
0.000000 1.900000 0.400000 -1.0 0.0 0.0 94 129 172 0.950 4 30
0.000000 1.900000 0.500000 -1.0 0.0 0.0 94 129 172 0.950 4 30
0.000000 1.900000 0.600000 -1.0 0.0 0.0 94 129 172 0.950 4 30
0.000000 1.900000 0.700000 -1.0 0.0 0.0 94 129 172 0.950 4 30
0.000000 1.900000 0.800000 -1.0 0.0 0.0 94 129 172 0.950 4 30
0.000000 1.900000 0.900000 -1.0 0.0 0.0 94 129 172 0.950 4 30
0.000000 1.900000 1.000000 -1.0 0.0 0.0 94 129 172 0.950 4 30
0.000000 1.900000 1.100000 -1.0 0.0 0.0 94 129 172 0.950 4 30
0.000000 1.900000 1.200000 -1.0 0.0 0.0 94 129 172 0.950 4 30
0.000000 1.900000 1.300000 -1.0 0.0 0.0 94 129 172 0.950 4 30
0.000000 1.900000 1.400000 -1.0 0.0 0.0 94 129 172 0.950 4 30
0.000000 1.900000 1.500000 -1.0 0.0 0.0 94 129 172 0.950 4 30
0.000000 1.900000 1.600000 -1.0 0.0 0.0 94 129 172 0.950 4 30
0.000000 1.900000 1.700000 -1.0 0.0 0.0 94 129 172 0.950 4 30
0.000000 1.900000 1.800000 -1.0 0.0 0.0 94 129 172 0.950 4 30
0.000000 1.900000 1.900000 -1.0 0.0 0.0 94 129 172 0.950 4 30
0.000000 1.900000 2.000000 -1.0 0.0 0.0 94 129 172 0.950 4 30
0.000000 2.000000 0.000000 -1.0 0.0 0.0 94 129 172 0.950 4 30
0.000000 2.000000 0.100000 -1.0 0.0 0.0 94 129 172 0.950 4 30
0.000000 2.000000 0.200000 -1.0 0.0 0.0 94 129 172 0.950 4 30
0.000000 2.000000 0.300000 -1.0 0.0 0.0 94 129 172 0.950 4 30
0.000000 2.000000 0.400000 -1.0 0.0 0.0 94 129 172 0.950 4 30
0.000000 2.000000 0.500000 -1.0 0.0 0.0 94 129 172 0.950 4 30
0.000000 2.000000 0.600000 -1.0 0.0 0.0 94 129 172 0.950 4 30
0.000000 2.000000 0.700000 -1.0 0.0 0.0 94 129 172 0.950 4 30
0.000000 2.000000 0.800000 -1.0 0.0 0.0 94 129 172 0.950 4 30
0.000000 2.000000 0.900000 -1.0 0.0 0.0 94 129 172 0.950 4 30
0.000000 2.000000 1.000000 -1.0 0.0 0.0 94 129 172 0.950 4 30
0.000000 2.000000 1.100000 -1.0 0.0 0.0 94 129 172 0.950 4 30
0.000000 2.000000 1.200000 -1.0 0.0 0.0 94 129 172 0.950 4 30
0.000000 2.000000 1.300000 -1.0 0.0 0.0 94 129 172 0.950 4 30
0.000000 2.000000 1.400000 -1.0 0.0 0.0 94 129 172 0.950 4 30
0.000000 2.000000 1.500000 -1.0 0.0 0.0 94 129 172 0.950 4 30
0.000000 2.000000 1.600000 -1.0 0.0 0.0 94 129 172 0.950 4 30
0.000000 2.000000 1.700000 -1.0 0.0 0.0 94 129 172 0.950 4 30
0.000000 2.000000 1.800000 -1.0 0.0 0.0 94 129 172 0.950 4 30
0.000000 2.000000 1.900000 -1.0 0.0 0.0 94 129 172 0.950 4 30
0.000000 2.000000 2.000000 -1.0 0.0 0.0 94 129 172 0.950 4 30
0.000000 0.000000 0.000000 0.0 -1.0 0.0 82 117 158 0.950 4 31
0.000000 0.000000 0.100000 0.0 -1.0 0.0 82 117 158 0.950 4 31
0.000000 0.000000 0.200000 0.0 -1.0 0.0 82 117 158 0.950 4 31
0.000000 0.000000 0.300000 0.0 -1.0 0.0 82 117 158 0.950 4 31
0.000000 0.000000 0.400000 0.0 -1.0 0.0 82 117 158 0.950 4 31
0.000000 0.000000 0.500000 0.0 -1.0 0.0 82 117 158 0.950 4 31
0.000000 0.000000 0.600000 0.0 -1.0 0.0 82 117 158 0.950 4 31
0.000000 0.000000 0.700000 0.0 -1.0 0.0 82 117 158 0.950 4 31
0.000000 0.000000 0.800000 0.0 -1.0 0.0 82 117 158 0.950 4 31
0.000000 0.000000 0.900000 0.0 -1.0 0.0 82 117 158 0.950 4 31
0.000000 0.000000 1.000000 0.0 -1.0 0.0 82 117 158 0.950 4 31
0.000000 0.000000 1.100000 0.0 -1.0 0.0 82 117 158 0.950 4 31
0.000000 0.000000 1.200000 0.0 -1.0 0.0 82 117 158 0.950 4 31
0.000000 0.000000 1.300000 0.0 -1.0 0.0 82 117 158 0.950 4 31
0.000000 0.000000 1.400000 0.0 -1.0 0.0 82 117 158 0.950 4 31
0.000000 0.000000 1.500000 0.0 -1.0 0.0 82 117 158 0.950 4 31
0.000000 0.000000 1.600000 0.0 -1.0 0.0 82 117 158 0.950 4 31
0.000000 0.000000 1.700000 0.0 -1.0 0.0 82 117 158 0.950 4 31
0.000000 0.000000 1.800000 0.0 -1.0 0.0 82 117 158 0.950 4 31
0.000000 0.000000 1.900000 0.0 -1.0 0.0 82 117 158 0.950 4 31
0.000000 0.000000 2.000000 0.0 -1.0 0.0 82 117 158 0.950 4 31
0.100000 0.000000 0.000000 0.0 -1.0 0.0 82 117 158 0.950 4 31
0.100000 0.000000 0.100000 0.0 -1.0 0.0 82 117 158 0.950 4 31
0.100000 0.000000 0.200000 0.0 -1.0 0.0 82 117 158 0.950 4 31
0.100000 0.000000 0.300000 0.0 -1.0 0.0 82 117 158 0.950 4 31
0.100000 0.000000 0.400000 0.0 -1.0 0.0 82 117 158 0.950 4 31
0.100000 0.000000 0.500000 0.0 -1.0 0.0 82 117 158 0.950 4 31
0.100000 0.000000 0.600000 0.0 -1.0 0.0 82 117 158 0.950 4 31
0.100000 0.000000 0.700000 0.0 -1.0 0.0 82 117 158 0.950 4 31
0.100000 0.000000 0.800000 0.0 -1.0 0.0 82 117 158 0.950 4 31
0.100000 0.000000 0.900000 0.0 -1.0 0.0 82 117 158 0.950 4 31
0.100000 0.000000 1.000000 0.0 -1.0 0.0 82 117 158 0.950 4 31
0.100000 0.000000 1.100000 0.0 -1.0 0.0 82 117 158 0.950 4 31
0.100000 0.000000 1.200000 0.0 -1.0 0.0 82 117 158 0.950 4 31
0.100000 0.000000 1.300000 0.0 -1.0 0.0 82 117 158 0.950 4 31
0.100000 0.000000 1.400000 0.0 -1.0 0.0 82 117 158 0.950 4 31
0.100000 0.000000 1.500000 0.0 -1.0 0.0 82 117 158 0.950 4 31
0.100000 0.000000 1.600000 0.0 -1.0 0.0 82 117 158 0.950 4 31
0.100000 0.000000 1.700000 0.0 -1.0 0.0 82 117 158 0.950 4 31
0.100000 0.000000 1.800000 0.0 -1.0 0.0 82 117 158 0.950 4 31
0.100000 0.000000 1.900000 0.0 -1.0 0.0 82 117 158 0.950 4 31
0.100000 0.000000 2.000000 0.0 -1.0 0.0 82 117 158 0.950 4 31
0.200000 0.000000 0.000000 0.0 -1.0 0.0 82 117 158 0.950 4 31
0.200000 0.000000 0.100000 0.0 -1.0 0.0 82 117 158 0.950 4 31
0.200000 0.000000 0.200000 0.0 -1.0 0.0 82 117 158 0.950 4 31
0.200000 0.000000 0.300000 0.0 -1.0 0.0 82 117 158 0.950 4 31
0.200000 0.000000 0.400000 0.0 -1.0 0.0 82 117 158 0.950 4 31
0.200000 0.000000 0.500000 0.0 -1.0 0.0 82 117 158 0.950 4 31
0.200000 0.000000 0.600000 0.0 -1.0 0.0 82 117 158 0.950 4 31
0.200000 0.000000 0.700000 0.0 -1.0 0.0 82 117 158 0.950 4 31
0.200000 0.000000 0.800000 0.0 -1.0 0.0 82 117 158 0.950 4 31
0.200000 0.000000 0.900000 0.0 -1.0 0.0 82 117 158 0.950 4 31
0.200000 0.000000 1.000000 0.0 -1.0 0.0 82 117 158 0.950 4 31
0.200000 0.000000 1.100000 0.0 -1.0 0.0 82 117 158 0.950 4 31
0.200000 0.000000 1.200000 0.0 -1.0 0.0 82 117 158 0.950 4 31
0.200000 0.000000 1.300000 0.0 -1.0 0.0 82 117 158 0.950 4 31
0.200000 0.000000 1.400000 0.0 -1.0 0.0 82 117 158 0.950 4 31
0.200000 0.000000 1.500000 0.0 -1.0 0.0 82 117 158 0.950 4 31
0.200000 0.000000 1.600000 0.0 -1.0 0.0 82 117 158 0.950 4 31
0.200000 0.000000 1.700000 0.0 -1.0 0.0 82 117 158 0.950 4 31
0.200000 0.000000 1.800000 0.0 -1.0 0.0 82 117 158 0.950 4 31
0.200000 0.000000 1.900000 0.0 -1.0 0.0 82 117 158 0.950 4 31
0.200000 0.000000 2.000000 0.0 -1.0 0.0 82 117 158 0.950 4 31
0.300000 0.000000 0.000000 0.0 -1.0 0.0 82 117 158 0.950 4 31
0.300000 0.000000 0.100000 0.0 -1.0 0.0 82 117 158 0.950 4 31
0.300000 0.000000 0.200000 0.0 -1.0 0.0 82 117 158 0.950 4 31
0.300000 0.000000 0.300000 0.0 -1.0 0.0 82 117 158 0.950 4 31
0.300000 0.000000 0.400000 0.0 -1.0 0.0 82 117 158 0.950 4 31
0.300000 0.000000 0.500000 0.0 -1.0 0.0 82 117 158 0.950 4 31
0.300000 0.000000 0.600000 0.0 -1.0 0.0 82 117 158 0.950 4 31
0.300000 0.000000 0.700000 0.0 -1.0 0.0 82 117 158 0.950 4 31
0.300000 0.000000 0.800000 0.0 -1.0 0.0 82 117 158 0.950 4 31
0.300000 0.000000 0.900000 0.0 -1.0 0.0 82 117 158 0.950 4 31
0.300000 0.000000 1.000000 0.0 -1.0 0.0 82 117 158 0.950 4 31
0.300000 0.000000 1.100000 0.0 -1.0 0.0 82 117 158 0.950 4 31
0.300000 0.000000 1.200000 0.0 -1.0 0.0 82 117 158 0.950 4 31
0.300000 0.000000 1.300000 0.0 -1.0 0.0 82 117 158 0.950 4 31
0.300000 0.000000 1.400000 0.0 -1.0 0.0 82 117 158 0.950 4 31
0.300000 0.000000 1.500000 0.0 -1.0 0.0 82 117 158 0.950 4 31
0.300000 0.000000 1.600000 0.0 -1.0 0.0 82 117 158 0.950 4 31
0.300000 0.000000 1.700000 0.0 -1.0 0.0 82 117 158 0.950 4 31
0.300000 0.000000 1.800000 0.0 -1.0 0.0 82 117 158 0.950 4 31
0.300000 0.000000 1.900000 0.0 -1.0 0.0 82 117 158 0.950 4 31
0.300000 0.000000 2.000000 0.0 -1.0 0.0 82 117 158 0.950 4 31
0.400000 0.000000 0.000000 0.0 -1.0 0.0 82 117 158 0.950 4 31
0.400000 0.000000 0.100000 0.0 -1.0 0.0 82 117 158 0.950 4 31
0.400000 0.000000 0.200000 0.0 -1.0 0.0 82 117 158 0.950 4 31
0.400000 0.000000 0.300000 0.0 -1.0 0.0 82 117 158 0.950 4 31
0.400000 0.000000 0.400000 0.0 -1.0 0.0 82 117 158 0.950 4 31
0.400000 0.000000 0.500000 0.0 -1.0 0.0 82 117 158 0.950 4 31
0.400000 0.000000 0.600000 0.0 -1.0 0.0 82 117 158 0.950 4 31
0.400000 0.000000 0.700000 0.0 -1.0 0.0 82 117 158 0.950 4 31
0.400000 0.000000 0.800000 0.0 -1.0 0.0 82 117 158 0.950 4 31
0.400000 0.000000 0.900000 0.0 -1.0 0.0 82 117 158 0.950 4 31
0.400000 0.000000 1.000000 0.0 -1.0 0.0 82 117 158 0.950 4 31
0.400000 0.000000 1.100000 0.0 -1.0 0.0 82 117 158 0.950 4 31
0.400000 0.000000 1.200000 0.0 -1.0 0.0 82 117 158 0.950 4 31
0.400000 0.000000 1.300000 0.0 -1.0 0.0 82 117 158 0.950 4 31
0.400000 0.000000 1.400000 0.0 -1.0 0.0 82 117 158 0.950 4 31
0.400000 0.000000 1.500000 0.0 -1.0 0.0 82 117 158 0.950 4 31
0.400000 0.000000 1.600000 0.0 -1.0 0.0 82 117 158 0.950 4 31
0.400000 0.000000 1.700000 0.0 -1.0 0.0 82 117 158 0.950 4 31
0.400000 0.000000 1.800000 0.0 -1.0 0.0 82 117 158 0.950 4 31
0.400000 0.000000 1.900000 0.0 -1.0 0.0 82 117 158 0.950 4 31
0.400000 0.000000 2.000000 0.0 -1.0 0.0 82 117 158 0.950 4 31
0.500000 0.000000 0.000000 0.0 -1.0 0.0 82 117 158 0.950 4 31
0.500000 0.000000 0.100000 0.0 -1.0 0.0 82 117 158 0.950 4 31
0.500000 0.000000 0.200000 0.0 -1.0 0.0 82 117 158 0.950 4 31
0.500000 0.000000 0.300000 0.0 -1.0 0.0 82 117 158 0.950 4 31
0.500000 0.000000 0.400000 0.0 -1.0 0.0 82 117 158 0.950 4 31
0.500000 0.000000 0.500000 0.0 -1.0 0.0 82 117 158 0.950 4 31
0.500000 0.000000 0.600000 0.0 -1.0 0.0 82 117 158 0.950 4 31
0.500000 0.000000 0.700000 0.0 -1.0 0.0 82 117 158 0.950 4 31
0.500000 0.000000 0.800000 0.0 -1.0 0.0 82 117 158 0.950 4 31
0.500000 0.000000 0.900000 0.0 -1.0 0.0 82 117 158 0.950 4 31
0.500000 0.000000 1.000000 0.0 -1.0 0.0 82 117 158 0.950 4 31
0.500000 0.000000 1.100000 0.0 -1.0 0.0 82 117 158 0.950 4 31
0.500000 0.000000 1.200000 0.0 -1.0 0.0 82 117 158 0.950 4 31
0.500000 0.000000 1.300000 0.0 -1.0 0.0 82 117 158 0.950 4 31
0.500000 0.000000 1.400000 0.0 -1.0 0.0 82 117 158 0.950 4 31
0.500000 0.000000 1.500000 0.0 -1.0 0.0 82 117 158 0.950 4 31
0.500000 0.000000 1.600000 0.0 -1.0 0.0 82 117 158 0.950 4 31
0.500000 0.000000 1.700000 0.0 -1.0 0.0 82 117 158 0.950 4 31
0.500000 0.000000 1.800000 0.0 -1.0 0.0 82 117 158 0.950 4 31
0.500000 0.000000 1.900000 0.0 -1.0 0.0 82 117 158 0.950 4 31
0.500000 0.000000 2.000000 0.0 -1.0 0.0 82 117 158 0.950 4 31
0.600000 0.000000 0.000000 0.0 -1.0 0.0 82 117 158 0.950 4 31
0.600000 0.000000 0.100000 0.0 -1.0 0.0 82 117 158 0.950 4 31
0.600000 0.000000 0.200000 0.0 -1.0 0.0 82 117 158 0.950 4 31
0.600000 0.000000 0.300000 0.0 -1.0 0.0 82 117 158 0.950 4 31
0.600000 0.000000 0.400000 0.0 -1.0 0.0 82 117 158 0.950 4 31
0.600000 0.000000 0.500000 0.0 -1.0 0.0 82 117 158 0.950 4 31
0.600000 0.000000 0.600000 0.0 -1.0 0.0 82 117 158 0.950 4 31
0.600000 0.000000 0.700000 0.0 -1.0 0.0 82 117 158 0.950 4 31
0.600000 0.000000 0.800000 0.0 -1.0 0.0 82 117 158 0.950 4 31
0.600000 0.000000 0.900000 0.0 -1.0 0.0 82 117 158 0.950 4 31
0.600000 0.000000 1.000000 0.0 -1.0 0.0 82 117 158 0.950 4 31
0.600000 0.000000 1.100000 0.0 -1.0 0.0 82 117 158 0.950 4 31
0.600000 0.000000 1.200000 0.0 -1.0 0.0 82 117 158 0.950 4 31
0.600000 0.000000 1.300000 0.0 -1.0 0.0 82 117 158 0.950 4 31
0.600000 0.000000 1.400000 0.0 -1.0 0.0 82 117 158 0.950 4 31
0.600000 0.000000 1.500000 0.0 -1.0 0.0 82 117 158 0.950 4 31
0.600000 0.000000 1.600000 0.0 -1.0 0.0 82 117 158 0.950 4 31
0.600000 0.000000 1.700000 0.0 -1.0 0.0 82 117 158 0.950 4 31
0.600000 0.000000 1.800000 0.0 -1.0 0.0 82 117 158 0.950 4 31
0.600000 0.000000 1.900000 0.0 -1.0 0.0 82 117 158 0.950 4 31
0.600000 0.000000 2.000000 0.0 -1.0 0.0 82 117 158 0.950 4 31
0.700000 0.000000 0.000000 0.0 -1.0 0.0 82 117 158 0.950 4 31
0.700000 0.000000 0.100000 0.0 -1.0 0.0 82 117 158 0.950 4 31
0.700000 0.000000 0.200000 0.0 -1.0 0.0 82 117 158 0.950 4 31
0.700000 0.000000 0.300000 0.0 -1.0 0.0 82 117 158 0.950 4 31
0.700000 0.000000 0.400000 0.0 -1.0 0.0 82 117 158 0.950 4 31
0.700000 0.000000 0.500000 0.0 -1.0 0.0 82 117 158 0.950 4 31
0.700000 0.000000 0.600000 0.0 -1.0 0.0 82 117 158 0.950 4 31
0.700000 0.000000 0.700000 0.0 -1.0 0.0 82 117 158 0.950 4 31
0.700000 0.000000 0.800000 0.0 -1.0 0.0 82 117 158 0.950 4 31
0.700000 0.000000 0.900000 0.0 -1.0 0.0 82 117 158 0.950 4 31
0.700000 0.000000 1.000000 0.0 -1.0 0.0 82 117 158 0.950 4 31
0.700000 0.000000 1.100000 0.0 -1.0 0.0 82 117 158 0.950 4 31
0.700000 0.000000 1.200000 0.0 -1.0 0.0 82 117 158 0.950 4 31
0.700000 0.000000 1.300000 0.0 -1.0 0.0 82 117 158 0.950 4 31
0.700000 0.000000 1.400000 0.0 -1.0 0.0 82 117 158 0.950 4 31
0.700000 0.000000 1.500000 0.0 -1.0 0.0 82 117 158 0.950 4 31
0.700000 0.000000 1.600000 0.0 -1.0 0.0 82 117 158 0.950 4 31
0.700000 0.000000 1.700000 0.0 -1.0 0.0 82 117 158 0.950 4 31
0.700000 0.000000 1.800000 0.0 -1.0 0.0 82 117 158 0.950 4 31
0.700000 0.000000 1.900000 0.0 -1.0 0.0 82 117 158 0.950 4 31
0.700000 0.000000 2.000000 0.0 -1.0 0.0 82 117 158 0.950 4 31
0.800000 0.000000 0.000000 0.0 -1.0 0.0 82 117 158 0.950 4 31
0.800000 0.000000 0.100000 0.0 -1.0 0.0 82 117 158 0.950 4 31
0.800000 0.000000 0.200000 0.0 -1.0 0.0 82 117 158 0.950 4 31
0.800000 0.000000 0.300000 0.0 -1.0 0.0 82 117 158 0.950 4 31
0.800000 0.000000 0.400000 0.0 -1.0 0.0 82 117 158 0.950 4 31
0.800000 0.000000 0.500000 0.0 -1.0 0.0 82 117 158 0.950 4 31
0.800000 0.000000 0.600000 0.0 -1.0 0.0 82 117 158 0.950 4 31
0.800000 0.000000 0.700000 0.0 -1.0 0.0 82 117 158 0.950 4 31
0.800000 0.000000 0.800000 0.0 -1.0 0.0 82 117 158 0.950 4 31
0.800000 0.000000 0.900000 0.0 -1.0 0.0 82 117 158 0.950 4 31
0.800000 0.000000 1.000000 0.0 -1.0 0.0 82 117 158 0.950 4 31
0.800000 0.000000 1.100000 0.0 -1.0 0.0 82 117 158 0.950 4 31
0.800000 0.000000 1.200000 0.0 -1.0 0.0 82 117 158 0.950 4 31
0.800000 0.000000 1.300000 0.0 -1.0 0.0 82 117 158 0.950 4 31
0.800000 0.000000 1.400000 0.0 -1.0 0.0 82 117 158 0.950 4 31
0.800000 0.000000 1.500000 0.0 -1.0 0.0 82 117 158 0.950 4 31
0.800000 0.000000 1.600000 0.0 -1.0 0.0 82 117 158 0.950 4 31
0.800000 0.000000 1.700000 0.0 -1.0 0.0 82 117 158 0.950 4 31
0.800000 0.000000 1.800000 0.0 -1.0 0.0 82 117 158 0.950 4 31
0.800000 0.000000 1.900000 0.0 -1.0 0.0 82 117 158 0.950 4 31
0.800000 0.000000 2.000000 0.0 -1.0 0.0 82 117 158 0.950 4 31
0.900000 0.000000 0.000000 0.0 -1.0 0.0 82 117 158 0.950 4 31
0.900000 0.000000 0.100000 0.0 -1.0 0.0 82 117 158 0.950 4 31
0.900000 0.000000 0.200000 0.0 -1.0 0.0 82 117 158 0.950 4 31
0.900000 0.000000 0.300000 0.0 -1.0 0.0 82 117 158 0.950 4 31
0.900000 0.000000 0.400000 0.0 -1.0 0.0 82 117 158 0.950 4 31
0.900000 0.000000 0.500000 0.0 -1.0 0.0 82 117 158 0.950 4 31
0.900000 0.000000 0.600000 0.0 -1.0 0.0 82 117 158 0.950 4 31
0.900000 0.000000 0.700000 0.0 -1.0 0.0 82 117 158 0.950 4 31
0.900000 0.000000 0.800000 0.0 -1.0 0.0 82 117 158 0.950 4 31
0.900000 0.000000 0.900000 0.0 -1.0 0.0 82 117 158 0.950 4 31
0.900000 0.000000 1.000000 0.0 -1.0 0.0 82 117 158 0.950 4 31
0.900000 0.000000 1.100000 0.0 -1.0 0.0 82 117 158 0.950 4 31
0.900000 0.000000 1.200000 0.0 -1.0 0.0 82 117 158 0.950 4 31
0.900000 0.000000 1.300000 0.0 -1.0 0.0 82 117 158 0.950 4 31
0.900000 0.000000 1.400000 0.0 -1.0 0.0 82 117 158 0.950 4 31
0.900000 0.000000 1.500000 0.0 -1.0 0.0 82 117 158 0.950 4 31
0.900000 0.000000 1.600000 0.0 -1.0 0.0 82 117 158 0.950 4 31
0.900000 0.000000 1.700000 0.0 -1.0 0.0 82 117 158 0.950 4 31
0.900000 0.000000 1.800000 0.0 -1.0 0.0 82 117 158 0.950 4 31
0.900000 0.000000 1.900000 0.0 -1.0 0.0 82 117 158 0.950 4 31
0.900000 0.000000 2.000000 0.0 -1.0 0.0 82 117 158 0.950 4 31
1.000000 0.000000 0.000000 0.0 -1.0 0.0 82 117 158 0.950 4 31
1.000000 0.000000 0.100000 0.0 -1.0 0.0 82 117 158 0.950 4 31
1.000000 0.000000 0.200000 0.0 -1.0 0.0 82 117 158 0.950 4 31
1.000000 0.000000 0.300000 0.0 -1.0 0.0 82 117 158 0.950 4 31
1.000000 0.000000 0.400000 0.0 -1.0 0.0 82 117 158 0.950 4 31
1.000000 0.000000 0.500000 0.0 -1.0 0.0 82 117 158 0.950 4 31
1.000000 0.000000 0.600000 0.0 -1.0 0.0 82 117 158 0.950 4 31
1.000000 0.000000 0.700000 0.0 -1.0 0.0 82 117 158 0.950 4 31
1.000000 0.000000 0.800000 0.0 -1.0 0.0 82 117 158 0.950 4 31
1.000000 0.000000 0.900000 0.0 -1.0 0.0 82 117 158 0.950 4 31
1.000000 0.000000 1.000000 0.0 -1.0 0.0 82 117 158 0.950 4 31
1.000000 0.000000 1.100000 0.0 -1.0 0.0 82 117 158 0.950 4 31
1.000000 0.000000 1.200000 0.0 -1.0 0.0 82 117 158 0.950 4 31
1.000000 0.000000 1.300000 0.0 -1.0 0.0 82 117 158 0.950 4 31
1.000000 0.000000 1.400000 0.0 -1.0 0.0 82 117 158 0.950 4 31
1.000000 0.000000 1.500000 0.0 -1.0 0.0 82 117 158 0.950 4 31
1.000000 0.000000 1.600000 0.0 -1.0 0.0 82 117 158 0.950 4 31
1.000000 0.000000 1.700000 0.0 -1.0 0.0 82 117 158 0.950 4 31
1.000000 0.000000 1.800000 0.0 -1.0 0.0 82 117 158 0.950 4 31
1.000000 0.000000 1.900000 0.0 -1.0 0.0 82 117 158 0.950 4 31
1.000000 0.000000 2.000000 0.0 -1.0 0.0 82 117 158 0.950 4 31
1.100000 0.000000 0.000000 0.0 -1.0 0.0 82 117 158 0.950 4 31
1.100000 0.000000 0.100000 0.0 -1.0 0.0 82 117 158 0.950 4 31
1.100000 0.000000 0.200000 0.0 -1.0 0.0 82 117 158 0.950 4 31
1.100000 0.000000 0.300000 0.0 -1.0 0.0 82 117 158 0.950 4 31
1.100000 0.000000 0.400000 0.0 -1.0 0.0 82 117 158 0.950 4 31
1.100000 0.000000 0.500000 0.0 -1.0 0.0 82 117 158 0.950 4 31
1.100000 0.000000 0.600000 0.0 -1.0 0.0 82 117 158 0.950 4 31
1.100000 0.000000 0.700000 0.0 -1.0 0.0 82 117 158 0.950 4 31
1.100000 0.000000 0.800000 0.0 -1.0 0.0 82 117 158 0.950 4 31
1.100000 0.000000 0.900000 0.0 -1.0 0.0 82 117 158 0.950 4 31
1.100000 0.000000 1.000000 0.0 -1.0 0.0 82 117 158 0.950 4 31
1.100000 0.000000 1.100000 0.0 -1.0 0.0 82 117 158 0.950 4 31
1.100000 0.000000 1.200000 0.0 -1.0 0.0 82 117 158 0.950 4 31
1.100000 0.000000 1.300000 0.0 -1.0 0.0 82 117 158 0.950 4 31
1.100000 0.000000 1.400000 0.0 -1.0 0.0 82 117 158 0.950 4 31
1.100000 0.000000 1.500000 0.0 -1.0 0.0 82 117 158 0.950 4 31
1.100000 0.000000 1.600000 0.0 -1.0 0.0 82 117 158 0.950 4 31
1.100000 0.000000 1.700000 0.0 -1.0 0.0 82 117 158 0.950 4 31
1.100000 0.000000 1.800000 0.0 -1.0 0.0 82 117 158 0.950 4 31
1.100000 0.000000 1.900000 0.0 -1.0 0.0 82 117 158 0.950 4 31
1.100000 0.000000 2.000000 0.0 -1.0 0.0 82 117 158 0.950 4 31
1.200000 0.000000 0.000000 0.0 -1.0 0.0 82 117 158 0.950 4 31
1.200000 0.000000 0.100000 0.0 -1.0 0.0 82 117 158 0.950 4 31
1.200000 0.000000 0.200000 0.0 -1.0 0.0 82 117 158 0.950 4 31
1.200000 0.000000 0.300000 0.0 -1.0 0.0 82 117 158 0.950 4 31
1.200000 0.000000 0.400000 0.0 -1.0 0.0 82 117 158 0.950 4 31
1.200000 0.000000 0.500000 0.0 -1.0 0.0 82 117 158 0.950 4 31
1.200000 0.000000 0.600000 0.0 -1.0 0.0 82 117 158 0.950 4 31
1.200000 0.000000 0.700000 0.0 -1.0 0.0 82 117 158 0.950 4 31
1.200000 0.000000 0.800000 0.0 -1.0 0.0 82 117 158 0.950 4 31
1.200000 0.000000 0.900000 0.0 -1.0 0.0 82 117 158 0.950 4 31
1.200000 0.000000 1.000000 0.0 -1.0 0.0 82 117 158 0.950 4 31
1.200000 0.000000 1.100000 0.0 -1.0 0.0 82 117 158 0.950 4 31
1.200000 0.000000 1.200000 0.0 -1.0 0.0 82 117 158 0.950 4 31
1.200000 0.000000 1.300000 0.0 -1.0 0.0 82 117 158 0.950 4 31
1.200000 0.000000 1.400000 0.0 -1.0 0.0 82 117 158 0.950 4 31
1.200000 0.000000 1.500000 0.0 -1.0 0.0 82 117 158 0.950 4 31
1.200000 0.000000 1.600000 0.0 -1.0 0.0 82 117 158 0.950 4 31
1.200000 0.000000 1.700000 0.0 -1.0 0.0 82 117 158 0.950 4 31
1.200000 0.000000 1.800000 0.0 -1.0 0.0 82 117 158 0.950 4 31
1.200000 0.000000 1.900000 0.0 -1.0 0.0 82 117 158 0.950 4 31
1.200000 0.000000 2.000000 0.0 -1.0 0.0 82 117 158 0.950 4 31
1.300000 0.000000 0.000000 0.0 -1.0 0.0 82 117 158 0.950 4 31
1.300000 0.000000 0.100000 0.0 -1.0 0.0 82 117 158 0.950 4 31
1.300000 0.000000 0.200000 0.0 -1.0 0.0 82 117 158 0.950 4 31
1.300000 0.000000 0.300000 0.0 -1.0 0.0 82 117 158 0.950 4 31
1.300000 0.000000 0.400000 0.0 -1.0 0.0 82 117 158 0.950 4 31
1.300000 0.000000 0.500000 0.0 -1.0 0.0 82 117 158 0.950 4 31
1.300000 0.000000 0.600000 0.0 -1.0 0.0 82 117 158 0.950 4 31
1.300000 0.000000 0.700000 0.0 -1.0 0.0 82 117 158 0.950 4 31
1.300000 0.000000 0.800000 0.0 -1.0 0.0 82 117 158 0.950 4 31
1.300000 0.000000 0.900000 0.0 -1.0 0.0 82 117 158 0.950 4 31
1.300000 0.000000 1.000000 0.0 -1.0 0.0 82 117 158 0.950 4 31
1.300000 0.000000 1.100000 0.0 -1.0 0.0 82 117 158 0.950 4 31
1.300000 0.000000 1.200000 0.0 -1.0 0.0 82 117 158 0.950 4 31
1.300000 0.000000 1.300000 0.0 -1.0 0.0 82 117 158 0.950 4 31
1.300000 0.000000 1.400000 0.0 -1.0 0.0 82 117 158 0.950 4 31
1.300000 0.000000 1.500000 0.0 -1.0 0.0 82 117 158 0.950 4 31
1.300000 0.000000 1.600000 0.0 -1.0 0.0 82 117 158 0.950 4 31
1.300000 0.000000 1.700000 0.0 -1.0 0.0 82 117 158 0.950 4 31
1.300000 0.000000 1.800000 0.0 -1.0 0.0 82 117 158 0.950 4 31
1.300000 0.000000 1.900000 0.0 -1.0 0.0 82 117 158 0.950 4 31
1.300000 0.000000 2.000000 0.0 -1.0 0.0 82 117 158 0.950 4 31
1.400000 0.000000 0.000000 0.0 -1.0 0.0 82 117 158 0.950 4 31
1.400000 0.000000 0.100000 0.0 -1.0 0.0 82 117 158 0.950 4 31
1.400000 0.000000 0.200000 0.0 -1.0 0.0 82 117 158 0.950 4 31
1.400000 0.000000 0.300000 0.0 -1.0 0.0 82 117 158 0.950 4 31
1.400000 0.000000 0.400000 0.0 -1.0 0.0 82 117 158 0.950 4 31
1.400000 0.000000 0.500000 0.0 -1.0 0.0 82 117 158 0.950 4 31
1.400000 0.000000 0.600000 0.0 -1.0 0.0 82 117 158 0.950 4 31
1.400000 0.000000 0.700000 0.0 -1.0 0.0 82 117 158 0.950 4 31
1.400000 0.000000 0.800000 0.0 -1.0 0.0 82 117 158 0.950 4 31
1.400000 0.000000 0.900000 0.0 -1.0 0.0 82 117 158 0.950 4 31
1.400000 0.000000 1.000000 0.0 -1.0 0.0 82 117 158 0.950 4 31
1.400000 0.000000 1.100000 0.0 -1.0 0.0 82 117 158 0.950 4 31
1.400000 0.000000 1.200000 0.0 -1.0 0.0 82 117 158 0.950 4 31
1.400000 0.000000 1.300000 0.0 -1.0 0.0 82 117 158 0.950 4 31
1.400000 0.000000 1.400000 0.0 -1.0 0.0 82 117 158 0.950 4 31
1.400000 0.000000 1.500000 0.0 -1.0 0.0 82 117 158 0.950 4 31
1.400000 0.000000 1.600000 0.0 -1.0 0.0 82 117 158 0.950 4 31
1.400000 0.000000 1.700000 0.0 -1.0 0.0 82 117 158 0.950 4 31
1.400000 0.000000 1.800000 0.0 -1.0 0.0 82 117 158 0.950 4 31
1.400000 0.000000 1.900000 0.0 -1.0 0.0 82 117 158 0.950 4 31
1.400000 0.000000 2.000000 0.0 -1.0 0.0 82 117 158 0.950 4 31
1.500000 0.000000 0.000000 0.0 -1.0 0.0 82 117 158 0.950 4 31
1.500000 0.000000 0.100000 0.0 -1.0 0.0 82 117 158 0.950 4 31
1.500000 0.000000 0.200000 0.0 -1.0 0.0 82 117 158 0.950 4 31
1.500000 0.000000 0.300000 0.0 -1.0 0.0 82 117 158 0.950 4 31
1.500000 0.000000 0.400000 0.0 -1.0 0.0 82 117 158 0.950 4 31
1.500000 0.000000 0.500000 0.0 -1.0 0.0 82 117 158 0.950 4 31
1.500000 0.000000 0.600000 0.0 -1.0 0.0 82 117 158 0.950 4 31
1.500000 0.000000 0.700000 0.0 -1.0 0.0 82 117 158 0.950 4 31
1.500000 0.000000 0.800000 0.0 -1.0 0.0 82 117 158 0.950 4 31
1.500000 0.000000 0.900000 0.0 -1.0 0.0 82 117 158 0.950 4 31
1.500000 0.000000 1.000000 0.0 -1.0 0.0 82 117 158 0.950 4 31
1.500000 0.000000 1.100000 0.0 -1.0 0.0 82 117 158 0.950 4 31
1.500000 0.000000 1.200000 0.0 -1.0 0.0 82 117 158 0.950 4 31
1.500000 0.000000 1.300000 0.0 -1.0 0.0 82 117 158 0.950 4 31
1.500000 0.000000 1.400000 0.0 -1.0 0.0 82 117 158 0.950 4 31
1.500000 0.000000 1.500000 0.0 -1.0 0.0 82 117 158 0.950 4 31
1.500000 0.000000 1.600000 0.0 -1.0 0.0 82 117 158 0.950 4 31
1.500000 0.000000 1.700000 0.0 -1.0 0.0 82 117 158 0.950 4 31
1.500000 0.000000 1.800000 0.0 -1.0 0.0 82 117 158 0.950 4 31
1.500000 0.000000 1.900000 0.0 -1.0 0.0 82 117 158 0.950 4 31
1.500000 0.000000 2.000000 0.0 -1.0 0.0 82 117 158 0.950 4 31
1.600000 0.000000 0.000000 0.0 -1.0 0.0 82 117 158 0.950 4 31
1.600000 0.000000 0.100000 0.0 -1.0 0.0 82 117 158 0.950 4 31
1.600000 0.000000 0.200000 0.0 -1.0 0.0 82 117 158 0.950 4 31
1.600000 0.000000 0.300000 0.0 -1.0 0.0 82 117 158 0.950 4 31
1.600000 0.000000 0.400000 0.0 -1.0 0.0 82 117 158 0.950 4 31
1.600000 0.000000 0.500000 0.0 -1.0 0.0 82 117 158 0.950 4 31
1.600000 0.000000 0.600000 0.0 -1.0 0.0 82 117 158 0.950 4 31
1.600000 0.000000 0.700000 0.0 -1.0 0.0 82 117 158 0.950 4 31
1.600000 0.000000 0.800000 0.0 -1.0 0.0 82 117 158 0.950 4 31
1.600000 0.000000 0.900000 0.0 -1.0 0.0 82 117 158 0.950 4 31
1.600000 0.000000 1.000000 0.0 -1.0 0.0 82 117 158 0.950 4 31
1.600000 0.000000 1.100000 0.0 -1.0 0.0 82 117 158 0.950 4 31
1.600000 0.000000 1.200000 0.0 -1.0 0.0 82 117 158 0.950 4 31
1.600000 0.000000 1.300000 0.0 -1.0 0.0 82 117 158 0.950 4 31
1.600000 0.000000 1.400000 0.0 -1.0 0.0 82 117 158 0.950 4 31
1.600000 0.000000 1.500000 0.0 -1.0 0.0 82 117 158 0.950 4 31
1.600000 0.000000 1.600000 0.0 -1.0 0.0 82 117 158 0.950 4 31
1.600000 0.000000 1.700000 0.0 -1.0 0.0 82 117 158 0.950 4 31
1.600000 0.000000 1.800000 0.0 -1.0 0.0 82 117 158 0.950 4 31
1.600000 0.000000 1.900000 0.0 -1.0 0.0 82 117 158 0.950 4 31
1.600000 0.000000 2.000000 0.0 -1.0 0.0 82 117 158 0.950 4 31
1.700000 0.000000 0.000000 0.0 -1.0 0.0 82 117 158 0.950 4 31
1.700000 0.000000 0.100000 0.0 -1.0 0.0 82 117 158 0.950 4 31
1.700000 0.000000 0.200000 0.0 -1.0 0.0 82 117 158 0.950 4 31
1.700000 0.000000 0.300000 0.0 -1.0 0.0 82 117 158 0.950 4 31
1.700000 0.000000 0.400000 0.0 -1.0 0.0 82 117 158 0.950 4 31
1.700000 0.000000 0.500000 0.0 -1.0 0.0 82 117 158 0.950 4 31
1.700000 0.000000 0.600000 0.0 -1.0 0.0 82 117 158 0.950 4 31
1.700000 0.000000 0.700000 0.0 -1.0 0.0 82 117 158 0.950 4 31
1.700000 0.000000 0.800000 0.0 -1.0 0.0 82 117 158 0.950 4 31
1.700000 0.000000 0.900000 0.0 -1.0 0.0 82 117 158 0.950 4 31
1.700000 0.000000 1.000000 0.0 -1.0 0.0 82 117 158 0.950 4 31
1.700000 0.000000 1.100000 0.0 -1.0 0.0 82 117 158 0.950 4 31
1.700000 0.000000 1.200000 0.0 -1.0 0.0 82 117 158 0.950 4 31
1.700000 0.000000 1.300000 0.0 -1.0 0.0 82 117 158 0.950 4 31
1.700000 0.000000 1.400000 0.0 -1.0 0.0 82 117 158 0.950 4 31
1.700000 0.000000 1.500000 0.0 -1.0 0.0 82 117 158 0.950 4 31
1.700000 0.000000 1.600000 0.0 -1.0 0.0 82 117 158 0.950 4 31
1.700000 0.000000 1.700000 0.0 -1.0 0.0 82 117 158 0.950 4 31
1.700000 0.000000 1.800000 0.0 -1.0 0.0 82 117 158 0.950 4 31
1.700000 0.000000 1.900000 0.0 -1.0 0.0 82 117 158 0.950 4 31
1.700000 0.000000 2.000000 0.0 -1.0 0.0 82 117 158 0.950 4 31
1.800000 0.000000 0.000000 0.0 -1.0 0.0 82 117 158 0.950 4 31
1.800000 0.000000 0.100000 0.0 -1.0 0.0 82 117 158 0.950 4 31
1.800000 0.000000 0.200000 0.0 -1.0 0.0 82 117 158 0.950 4 31
1.800000 0.000000 0.300000 0.0 -1.0 0.0 82 117 158 0.950 4 31
1.800000 0.000000 0.400000 0.0 -1.0 0.0 82 117 158 0.950 4 31
1.800000 0.000000 0.500000 0.0 -1.0 0.0 82 117 158 0.950 4 31
1.800000 0.000000 0.600000 0.0 -1.0 0.0 82 117 158 0.950 4 31
1.800000 0.000000 0.700000 0.0 -1.0 0.0 82 117 158 0.950 4 31
1.800000 0.000000 0.800000 0.0 -1.0 0.0 82 117 158 0.950 4 31
1.800000 0.000000 0.900000 0.0 -1.0 0.0 82 117 158 0.950 4 31
1.800000 0.000000 1.000000 0.0 -1.0 0.0 82 117 158 0.950 4 31
1.800000 0.000000 1.100000 0.0 -1.0 0.0 82 117 158 0.950 4 31
1.800000 0.000000 1.200000 0.0 -1.0 0.0 82 117 158 0.950 4 31
1.800000 0.000000 1.300000 0.0 -1.0 0.0 82 117 158 0.950 4 31
1.800000 0.000000 1.400000 0.0 -1.0 0.0 82 117 158 0.950 4 31
1.800000 0.000000 1.500000 0.0 -1.0 0.0 82 117 158 0.950 4 31
1.800000 0.000000 1.600000 0.0 -1.0 0.0 82 117 158 0.950 4 31
1.800000 0.000000 1.700000 0.0 -1.0 0.0 82 117 158 0.950 4 31
1.800000 0.000000 1.800000 0.0 -1.0 0.0 82 117 158 0.950 4 31
1.800000 0.000000 1.900000 0.0 -1.0 0.0 82 117 158 0.950 4 31
1.800000 0.000000 2.000000 0.0 -1.0 0.0 82 117 158 0.950 4 31
1.900000 0.000000 0.000000 0.0 -1.0 0.0 82 117 158 0.950 4 31
1.900000 0.000000 0.100000 0.0 -1.0 0.0 82 117 158 0.950 4 31
1.900000 0.000000 0.200000 0.0 -1.0 0.0 82 117 158 0.950 4 31
1.900000 0.000000 0.300000 0.0 -1.0 0.0 82 117 158 0.950 4 31
1.900000 0.000000 0.400000 0.0 -1.0 0.0 82 117 158 0.950 4 31
1.900000 0.000000 0.500000 0.0 -1.0 0.0 82 117 158 0.950 4 31
1.900000 0.000000 0.600000 0.0 -1.0 0.0 82 117 158 0.950 4 31
1.900000 0.000000 0.700000 0.0 -1.0 0.0 82 117 158 0.950 4 31
1.900000 0.000000 0.800000 0.0 -1.0 0.0 82 117 158 0.950 4 31
1.900000 0.000000 0.900000 0.0 -1.0 0.0 82 117 158 0.950 4 31
1.900000 0.000000 1.000000 0.0 -1.0 0.0 82 117 158 0.950 4 31
1.900000 0.000000 1.100000 0.0 -1.0 0.0 82 117 158 0.950 4 31
1.900000 0.000000 1.200000 0.0 -1.0 0.0 82 117 158 0.950 4 31
1.900000 0.000000 1.300000 0.0 -1.0 0.0 82 117 158 0.950 4 31
1.900000 0.000000 1.400000 0.0 -1.0 0.0 82 117 158 0.950 4 31
1.900000 0.000000 1.500000 0.0 -1.0 0.0 82 117 158 0.950 4 31
1.900000 0.000000 1.600000 0.0 -1.0 0.0 82 117 158 0.950 4 31
1.900000 0.000000 1.700000 0.0 -1.0 0.0 82 117 158 0.950 4 31
1.900000 0.000000 1.800000 0.0 -1.0 0.0 82 117 158 0.950 4 31
1.900000 0.000000 1.900000 0.0 -1.0 0.0 82 117 158 0.950 4 31
1.900000 0.000000 2.000000 0.0 -1.0 0.0 82 117 158 0.950 4 31
2.000000 0.000000 0.000000 0.0 -1.0 0.0 82 117 158 0.950 4 31
2.000000 0.000000 0.100000 0.0 -1.0 0.0 82 117 158 0.950 4 31
2.000000 0.000000 0.200000 0.0 -1.0 0.0 82 117 158 0.950 4 31
2.000000 0.000000 0.300000 0.0 -1.0 0.0 82 117 158 0.950 4 31
2.000000 0.000000 0.400000 0.0 -1.0 0.0 82 117 158 0.950 4 31
2.000000 0.000000 0.500000 0.0 -1.0 0.0 82 117 158 0.950 4 31
2.000000 0.000000 0.600000 0.0 -1.0 0.0 82 117 158 0.950 4 31
2.000000 0.000000 0.700000 0.0 -1.0 0.0 82 117 158 0.950 4 31
2.000000 0.000000 0.800000 0.0 -1.0 0.0 82 117 158 0.950 4 31
2.000000 0.000000 0.900000 0.0 -1.0 0.0 82 117 158 0.950 4 31
2.000000 0.000000 1.000000 0.0 -1.0 0.0 82 117 158 0.950 4 31
2.000000 0.000000 1.100000 0.0 -1.0 0.0 82 117 158 0.950 4 31
2.000000 0.000000 1.200000 0.0 -1.0 0.0 82 117 158 0.950 4 31
2.000000 0.000000 1.300000 0.0 -1.0 0.0 82 117 158 0.950 4 31
2.000000 0.000000 1.400000 0.0 -1.0 0.0 82 117 158 0.950 4 31
2.000000 0.000000 1.500000 0.0 -1.0 0.0 82 117 158 0.950 4 31
2.000000 0.000000 1.600000 0.0 -1.0 0.0 82 117 158 0.950 4 31
2.000000 0.000000 1.700000 0.0 -1.0 0.0 82 117 158 0.950 4 31
2.000000 0.000000 1.800000 0.0 -1.0 0.0 82 117 158 0.950 4 31
2.000000 0.000000 1.900000 0.0 -1.0 0.0 82 117 158 0.950 4 31
2.000000 0.000000 2.000000 0.0 -1.0 0.0 82 117 158 0.950 4 31
0.000000 0.000000 0.000000 0.0 0.0 -1.0 108 143 184 0.950 4 32
0.000000 0.100000 0.000000 0.0 0.0 -1.0 108 143 184 0.950 4 32
0.000000 0.200000 0.000000 0.0 0.0 -1.0 108 143 184 0.950 4 32
0.000000 0.300000 0.000000 0.0 0.0 -1.0 108 143 184 0.950 4 32
0.000000 0.400000 0.000000 0.0 0.0 -1.0 108 143 184 0.950 4 32
0.000000 0.500000 0.000000 0.0 0.0 -1.0 108 143 184 0.950 4 32
0.000000 0.600000 0.000000 0.0 0.0 -1.0 108 143 184 0.950 4 32
0.000000 0.700000 0.000000 0.0 0.0 -1.0 108 143 184 0.950 4 32
0.000000 0.800000 0.000000 0.0 0.0 -1.0 108 143 184 0.950 4 32
0.000000 0.900000 0.000000 0.0 0.0 -1.0 108 143 184 0.950 4 32
0.000000 1.000000 0.000000 0.0 0.0 -1.0 108 143 184 0.950 4 32
0.000000 1.100000 0.000000 0.0 0.0 -1.0 108 143 184 0.950 4 32
0.000000 1.200000 0.000000 0.0 0.0 -1.0 108 143 184 0.950 4 32
0.000000 1.300000 0.000000 0.0 0.0 -1.0 108 143 184 0.950 4 32
0.000000 1.400000 0.000000 0.0 0.0 -1.0 108 143 184 0.950 4 32
0.000000 1.500000 0.000000 0.0 0.0 -1.0 108 143 184 0.950 4 32
0.000000 1.600000 0.000000 0.0 0.0 -1.0 108 143 184 0.950 4 32
0.000000 1.700000 0.000000 0.0 0.0 -1.0 108 143 184 0.950 4 32
0.000000 1.800000 0.000000 0.0 0.0 -1.0 108 143 184 0.950 4 32
0.000000 1.900000 0.000000 0.0 0.0 -1.0 108 143 184 0.950 4 32
0.000000 2.000000 0.000000 0.0 0.0 -1.0 108 143 184 0.950 4 32
0.100000 0.000000 0.000000 0.0 0.0 -1.0 108 143 184 0.950 4 32
0.100000 0.100000 0.000000 0.0 0.0 -1.0 108 143 184 0.950 4 32
0.100000 0.200000 0.000000 0.0 0.0 -1.0 108 143 184 0.950 4 32
0.100000 0.300000 0.000000 0.0 0.0 -1.0 108 143 184 0.950 4 32
0.100000 0.400000 0.000000 0.0 0.0 -1.0 108 143 184 0.950 4 32
0.100000 0.500000 0.000000 0.0 0.0 -1.0 108 143 184 0.950 4 32
0.100000 0.600000 0.000000 0.0 0.0 -1.0 108 143 184 0.950 4 32
0.100000 0.700000 0.000000 0.0 0.0 -1.0 108 143 184 0.950 4 32
0.100000 0.800000 0.000000 0.0 0.0 -1.0 108 143 184 0.950 4 32
0.100000 0.900000 0.000000 0.0 0.0 -1.0 108 143 184 0.950 4 32
0.100000 1.000000 0.000000 0.0 0.0 -1.0 108 143 184 0.950 4 32
0.100000 1.100000 0.000000 0.0 0.0 -1.0 108 143 184 0.950 4 32
0.100000 1.200000 0.000000 0.0 0.0 -1.0 108 143 184 0.950 4 32
0.100000 1.300000 0.000000 0.0 0.0 -1.0 108 143 184 0.950 4 32
0.100000 1.400000 0.000000 0.0 0.0 -1.0 108 143 184 0.950 4 32
0.100000 1.500000 0.000000 0.0 0.0 -1.0 108 143 184 0.950 4 32
0.100000 1.600000 0.000000 0.0 0.0 -1.0 108 143 184 0.950 4 32
0.100000 1.700000 0.000000 0.0 0.0 -1.0 108 143 184 0.950 4 32
0.100000 1.800000 0.000000 0.0 0.0 -1.0 108 143 184 0.950 4 32
0.100000 1.900000 0.000000 0.0 0.0 -1.0 108 143 184 0.950 4 32
0.100000 2.000000 0.000000 0.0 0.0 -1.0 108 143 184 0.950 4 32
0.200000 0.000000 0.000000 0.0 0.0 -1.0 108 143 184 0.950 4 32
0.200000 0.100000 0.000000 0.0 0.0 -1.0 108 143 184 0.950 4 32
0.200000 0.200000 0.000000 0.0 0.0 -1.0 108 143 184 0.950 4 32
0.200000 0.300000 0.000000 0.0 0.0 -1.0 108 143 184 0.950 4 32
0.200000 0.400000 0.000000 0.0 0.0 -1.0 108 143 184 0.950 4 32
0.200000 0.500000 0.000000 0.0 0.0 -1.0 108 143 184 0.950 4 32
0.200000 0.600000 0.000000 0.0 0.0 -1.0 108 143 184 0.950 4 32
0.200000 0.700000 0.000000 0.0 0.0 -1.0 108 143 184 0.950 4 32
0.200000 0.800000 0.000000 0.0 0.0 -1.0 108 143 184 0.950 4 32
0.200000 0.900000 0.000000 0.0 0.0 -1.0 108 143 184 0.950 4 32
0.200000 1.000000 0.000000 0.0 0.0 -1.0 108 143 184 0.950 4 32
0.200000 1.100000 0.000000 0.0 0.0 -1.0 108 143 184 0.950 4 32
0.200000 1.200000 0.000000 0.0 0.0 -1.0 108 143 184 0.950 4 32
0.200000 1.300000 0.000000 0.0 0.0 -1.0 108 143 184 0.950 4 32
0.200000 1.400000 0.000000 0.0 0.0 -1.0 108 143 184 0.950 4 32
0.200000 1.500000 0.000000 0.0 0.0 -1.0 108 143 184 0.950 4 32
0.200000 1.600000 0.000000 0.0 0.0 -1.0 108 143 184 0.950 4 32
0.200000 1.700000 0.000000 0.0 0.0 -1.0 108 143 184 0.950 4 32
0.200000 1.800000 0.000000 0.0 0.0 -1.0 108 143 184 0.950 4 32
0.200000 1.900000 0.000000 0.0 0.0 -1.0 108 143 184 0.950 4 32
0.200000 2.000000 0.000000 0.0 0.0 -1.0 108 143 184 0.950 4 32
0.300000 0.000000 0.000000 0.0 0.0 -1.0 108 143 184 0.950 4 32
0.300000 0.100000 0.000000 0.0 0.0 -1.0 108 143 184 0.950 4 32
0.300000 0.200000 0.000000 0.0 0.0 -1.0 108 143 184 0.950 4 32
0.300000 0.300000 0.000000 0.0 0.0 -1.0 108 143 184 0.950 4 32
0.300000 0.400000 0.000000 0.0 0.0 -1.0 108 143 184 0.950 4 32
0.300000 0.500000 0.000000 0.0 0.0 -1.0 108 143 184 0.950 4 32
0.300000 0.600000 0.000000 0.0 0.0 -1.0 108 143 184 0.950 4 32
0.300000 0.700000 0.000000 0.0 0.0 -1.0 108 143 184 0.950 4 32
0.300000 0.800000 0.000000 0.0 0.0 -1.0 108 143 184 0.950 4 32
0.300000 0.900000 0.000000 0.0 0.0 -1.0 108 143 184 0.950 4 32
0.300000 1.000000 0.000000 0.0 0.0 -1.0 108 143 184 0.950 4 32
0.300000 1.100000 0.000000 0.0 0.0 -1.0 108 143 184 0.950 4 32
0.300000 1.200000 0.000000 0.0 0.0 -1.0 108 143 184 0.950 4 32
0.300000 1.300000 0.000000 0.0 0.0 -1.0 108 143 184 0.950 4 32
0.300000 1.400000 0.000000 0.0 0.0 -1.0 108 143 184 0.950 4 32
0.300000 1.500000 0.000000 0.0 0.0 -1.0 108 143 184 0.950 4 32
0.300000 1.600000 0.000000 0.0 0.0 -1.0 108 143 184 0.950 4 32
0.300000 1.700000 0.000000 0.0 0.0 -1.0 108 143 184 0.950 4 32
0.300000 1.800000 0.000000 0.0 0.0 -1.0 108 143 184 0.950 4 32
0.300000 1.900000 0.000000 0.0 0.0 -1.0 108 143 184 0.950 4 32
0.300000 2.000000 0.000000 0.0 0.0 -1.0 108 143 184 0.950 4 32
0.400000 0.000000 0.000000 0.0 0.0 -1.0 108 143 184 0.950 4 32
0.400000 0.100000 0.000000 0.0 0.0 -1.0 108 143 184 0.950 4 32
0.400000 0.200000 0.000000 0.0 0.0 -1.0 108 143 184 0.950 4 32
0.400000 0.300000 0.000000 0.0 0.0 -1.0 108 143 184 0.950 4 32
0.400000 0.400000 0.000000 0.0 0.0 -1.0 108 143 184 0.950 4 32
0.400000 0.500000 0.000000 0.0 0.0 -1.0 108 143 184 0.950 4 32
0.400000 0.600000 0.000000 0.0 0.0 -1.0 108 143 184 0.950 4 32
0.400000 0.700000 0.000000 0.0 0.0 -1.0 108 143 184 0.950 4 32
0.400000 0.800000 0.000000 0.0 0.0 -1.0 108 143 184 0.950 4 32
0.400000 0.900000 0.000000 0.0 0.0 -1.0 108 143 184 0.950 4 32
0.400000 1.000000 0.000000 0.0 0.0 -1.0 108 143 184 0.950 4 32
0.400000 1.100000 0.000000 0.0 0.0 -1.0 108 143 184 0.950 4 32
0.400000 1.200000 0.000000 0.0 0.0 -1.0 108 143 184 0.950 4 32
0.400000 1.300000 0.000000 0.0 0.0 -1.0 108 143 184 0.950 4 32
0.400000 1.400000 0.000000 0.0 0.0 -1.0 108 143 184 0.950 4 32
0.400000 1.500000 0.000000 0.0 0.0 -1.0 108 143 184 0.950 4 32
0.400000 1.600000 0.000000 0.0 0.0 -1.0 108 143 184 0.950 4 32
0.400000 1.700000 0.000000 0.0 0.0 -1.0 108 143 184 0.950 4 32
0.400000 1.800000 0.000000 0.0 0.0 -1.0 108 143 184 0.950 4 32
0.400000 1.900000 0.000000 0.0 0.0 -1.0 108 143 184 0.950 4 32
0.400000 2.000000 0.000000 0.0 0.0 -1.0 108 143 184 0.950 4 32
0.500000 0.000000 0.000000 0.0 0.0 -1.0 108 143 184 0.950 4 32
0.500000 0.100000 0.000000 0.0 0.0 -1.0 108 143 184 0.950 4 32
0.500000 0.200000 0.000000 0.0 0.0 -1.0 108 143 184 0.950 4 32
0.500000 0.300000 0.000000 0.0 0.0 -1.0 108 143 184 0.950 4 32
0.500000 0.400000 0.000000 0.0 0.0 -1.0 108 143 184 0.950 4 32
0.500000 0.500000 0.000000 0.0 0.0 -1.0 108 143 184 0.950 4 32
0.500000 0.600000 0.000000 0.0 0.0 -1.0 108 143 184 0.950 4 32
0.500000 0.700000 0.000000 0.0 0.0 -1.0 108 143 184 0.950 4 32
0.500000 0.800000 0.000000 0.0 0.0 -1.0 108 143 184 0.950 4 32
0.500000 0.900000 0.000000 0.0 0.0 -1.0 108 143 184 0.950 4 32
0.500000 1.000000 0.000000 0.0 0.0 -1.0 108 143 184 0.950 4 32
0.500000 1.100000 0.000000 0.0 0.0 -1.0 108 143 184 0.950 4 32
0.500000 1.200000 0.000000 0.0 0.0 -1.0 108 143 184 0.950 4 32
0.500000 1.300000 0.000000 0.0 0.0 -1.0 108 143 184 0.950 4 32
0.500000 1.400000 0.000000 0.0 0.0 -1.0 108 143 184 0.950 4 32
0.500000 1.500000 0.000000 0.0 0.0 -1.0 108 143 184 0.950 4 32
0.500000 1.600000 0.000000 0.0 0.0 -1.0 108 143 184 0.950 4 32
0.500000 1.700000 0.000000 0.0 0.0 -1.0 108 143 184 0.950 4 32
0.500000 1.800000 0.000000 0.0 0.0 -1.0 108 143 184 0.950 4 32
0.500000 1.900000 0.000000 0.0 0.0 -1.0 108 143 184 0.950 4 32
0.500000 2.000000 0.000000 0.0 0.0 -1.0 108 143 184 0.950 4 32
0.600000 0.000000 0.000000 0.0 0.0 -1.0 108 143 184 0.950 4 32
0.600000 0.100000 0.000000 0.0 0.0 -1.0 108 143 184 0.950 4 32
0.600000 0.200000 0.000000 0.0 0.0 -1.0 108 143 184 0.950 4 32
0.600000 0.300000 0.000000 0.0 0.0 -1.0 108 143 184 0.950 4 32
0.600000 0.400000 0.000000 0.0 0.0 -1.0 108 143 184 0.950 4 32
0.600000 0.500000 0.000000 0.0 0.0 -1.0 108 143 184 0.950 4 32
0.600000 0.600000 0.000000 0.0 0.0 -1.0 108 143 184 0.950 4 32
0.600000 0.700000 0.000000 0.0 0.0 -1.0 108 143 184 0.950 4 32
0.600000 0.800000 0.000000 0.0 0.0 -1.0 108 143 184 0.950 4 32
0.600000 0.900000 0.000000 0.0 0.0 -1.0 108 143 184 0.950 4 32
0.600000 1.000000 0.000000 0.0 0.0 -1.0 108 143 184 0.950 4 32
0.600000 1.100000 0.000000 0.0 0.0 -1.0 108 143 184 0.950 4 32
0.600000 1.200000 0.000000 0.0 0.0 -1.0 108 143 184 0.950 4 32
0.600000 1.300000 0.000000 0.0 0.0 -1.0 108 143 184 0.950 4 32
0.600000 1.400000 0.000000 0.0 0.0 -1.0 108 143 184 0.950 4 32
0.600000 1.500000 0.000000 0.0 0.0 -1.0 108 143 184 0.950 4 32
0.600000 1.600000 0.000000 0.0 0.0 -1.0 108 143 184 0.950 4 32
0.600000 1.700000 0.000000 0.0 0.0 -1.0 108 143 184 0.950 4 32
0.600000 1.800000 0.000000 0.0 0.0 -1.0 108 143 184 0.950 4 32
0.600000 1.900000 0.000000 0.0 0.0 -1.0 108 143 184 0.950 4 32
0.600000 2.000000 0.000000 0.0 0.0 -1.0 108 143 184 0.950 4 32
0.700000 0.000000 0.000000 0.0 0.0 -1.0 108 143 184 0.950 4 32
0.700000 0.100000 0.000000 0.0 0.0 -1.0 108 143 184 0.950 4 32
0.700000 0.200000 0.000000 0.0 0.0 -1.0 108 143 184 0.950 4 32
0.700000 0.300000 0.000000 0.0 0.0 -1.0 108 143 184 0.950 4 32
0.700000 0.400000 0.000000 0.0 0.0 -1.0 108 143 184 0.950 4 32
0.700000 0.500000 0.000000 0.0 0.0 -1.0 108 143 184 0.950 4 32
0.700000 0.600000 0.000000 0.0 0.0 -1.0 108 143 184 0.950 4 32
0.700000 0.700000 0.000000 0.0 0.0 -1.0 108 143 184 0.950 4 32
0.700000 0.800000 0.000000 0.0 0.0 -1.0 108 143 184 0.950 4 32
0.700000 0.900000 0.000000 0.0 0.0 -1.0 108 143 184 0.950 4 32
0.700000 1.000000 0.000000 0.0 0.0 -1.0 108 143 184 0.950 4 32
0.700000 1.100000 0.000000 0.0 0.0 -1.0 108 143 184 0.950 4 32
0.700000 1.200000 0.000000 0.0 0.0 -1.0 108 143 184 0.950 4 32
0.700000 1.300000 0.000000 0.0 0.0 -1.0 108 143 184 0.950 4 32
0.700000 1.400000 0.000000 0.0 0.0 -1.0 108 143 184 0.950 4 32
0.700000 1.500000 0.000000 0.0 0.0 -1.0 108 143 184 0.950 4 32
0.700000 1.600000 0.000000 0.0 0.0 -1.0 108 143 184 0.950 4 32
0.700000 1.700000 0.000000 0.0 0.0 -1.0 108 143 184 0.950 4 32
0.700000 1.800000 0.000000 0.0 0.0 -1.0 108 143 184 0.950 4 32
0.700000 1.900000 0.000000 0.0 0.0 -1.0 108 143 184 0.950 4 32
0.700000 2.000000 0.000000 0.0 0.0 -1.0 108 143 184 0.950 4 32
0.800000 0.000000 0.000000 0.0 0.0 -1.0 108 143 184 0.950 4 32
0.800000 0.100000 0.000000 0.0 0.0 -1.0 108 143 184 0.950 4 32
0.800000 0.200000 0.000000 0.0 0.0 -1.0 108 143 184 0.950 4 32
0.800000 0.300000 0.000000 0.0 0.0 -1.0 108 143 184 0.950 4 32
0.800000 0.400000 0.000000 0.0 0.0 -1.0 108 143 184 0.950 4 32
0.800000 0.500000 0.000000 0.0 0.0 -1.0 108 143 184 0.950 4 32
0.800000 0.600000 0.000000 0.0 0.0 -1.0 108 143 184 0.950 4 32
0.800000 0.700000 0.000000 0.0 0.0 -1.0 108 143 184 0.950 4 32
0.800000 0.800000 0.000000 0.0 0.0 -1.0 108 143 184 0.950 4 32
0.800000 0.900000 0.000000 0.0 0.0 -1.0 108 143 184 0.950 4 32
0.800000 1.000000 0.000000 0.0 0.0 -1.0 108 143 184 0.950 4 32
0.800000 1.100000 0.000000 0.0 0.0 -1.0 108 143 184 0.950 4 32
0.800000 1.200000 0.000000 0.0 0.0 -1.0 108 143 184 0.950 4 32
0.800000 1.300000 0.000000 0.0 0.0 -1.0 108 143 184 0.950 4 32
0.800000 1.400000 0.000000 0.0 0.0 -1.0 108 143 184 0.950 4 32
0.800000 1.500000 0.000000 0.0 0.0 -1.0 108 143 184 0.950 4 32
0.800000 1.600000 0.000000 0.0 0.0 -1.0 108 143 184 0.950 4 32
0.800000 1.700000 0.000000 0.0 0.0 -1.0 108 143 184 0.950 4 32
0.800000 1.800000 0.000000 0.0 0.0 -1.0 108 143 184 0.950 4 32
0.800000 1.900000 0.000000 0.0 0.0 -1.0 108 143 184 0.950 4 32
0.800000 2.000000 0.000000 0.0 0.0 -1.0 108 143 184 0.950 4 32
0.900000 0.000000 0.000000 0.0 0.0 -1.0 108 143 184 0.950 4 32
0.900000 0.100000 0.000000 0.0 0.0 -1.0 108 143 184 0.950 4 32
0.900000 0.200000 0.000000 0.0 0.0 -1.0 108 143 184 0.950 4 32
0.900000 0.300000 0.000000 0.0 0.0 -1.0 108 143 184 0.950 4 32
0.900000 0.400000 0.000000 0.0 0.0 -1.0 108 143 184 0.950 4 32
0.900000 0.500000 0.000000 0.0 0.0 -1.0 108 143 184 0.950 4 32
0.900000 0.600000 0.000000 0.0 0.0 -1.0 108 143 184 0.950 4 32
0.900000 0.700000 0.000000 0.0 0.0 -1.0 108 143 184 0.950 4 32
0.900000 0.800000 0.000000 0.0 0.0 -1.0 108 143 184 0.950 4 32
0.900000 0.900000 0.000000 0.0 0.0 -1.0 108 143 184 0.950 4 32
0.900000 1.000000 0.000000 0.0 0.0 -1.0 108 143 184 0.950 4 32
0.900000 1.100000 0.000000 0.0 0.0 -1.0 108 143 184 0.950 4 32
0.900000 1.200000 0.000000 0.0 0.0 -1.0 108 143 184 0.950 4 32
0.900000 1.300000 0.000000 0.0 0.0 -1.0 108 143 184 0.950 4 32
0.900000 1.400000 0.000000 0.0 0.0 -1.0 108 143 184 0.950 4 32
0.900000 1.500000 0.000000 0.0 0.0 -1.0 108 143 184 0.950 4 32
0.900000 1.600000 0.000000 0.0 0.0 -1.0 108 143 184 0.950 4 32
0.900000 1.700000 0.000000 0.0 0.0 -1.0 108 143 184 0.950 4 32
0.900000 1.800000 0.000000 0.0 0.0 -1.0 108 143 184 0.950 4 32
0.900000 1.900000 0.000000 0.0 0.0 -1.0 108 143 184 0.950 4 32
0.900000 2.000000 0.000000 0.0 0.0 -1.0 108 143 184 0.950 4 32
1.000000 0.000000 0.000000 0.0 0.0 -1.0 108 143 184 0.950 4 32
1.000000 0.100000 0.000000 0.0 0.0 -1.0 108 143 184 0.950 4 32
1.000000 0.200000 0.000000 0.0 0.0 -1.0 108 143 184 0.950 4 32
1.000000 0.300000 0.000000 0.0 0.0 -1.0 108 143 184 0.950 4 32
1.000000 0.400000 0.000000 0.0 0.0 -1.0 108 143 184 0.950 4 32
1.000000 0.500000 0.000000 0.0 0.0 -1.0 108 143 184 0.950 4 32
1.000000 0.600000 0.000000 0.0 0.0 -1.0 108 143 184 0.950 4 32
1.000000 0.700000 0.000000 0.0 0.0 -1.0 108 143 184 0.950 4 32
1.000000 0.800000 0.000000 0.0 0.0 -1.0 108 143 184 0.950 4 32
1.000000 0.900000 0.000000 0.0 0.0 -1.0 108 143 184 0.950 4 32
1.000000 1.000000 0.000000 0.0 0.0 -1.0 108 143 184 0.950 4 32
1.000000 1.100000 0.000000 0.0 0.0 -1.0 108 143 184 0.950 4 32
1.000000 1.200000 0.000000 0.0 0.0 -1.0 108 143 184 0.950 4 32
1.000000 1.300000 0.000000 0.0 0.0 -1.0 108 143 184 0.950 4 32
1.000000 1.400000 0.000000 0.0 0.0 -1.0 108 143 184 0.950 4 32
1.000000 1.500000 0.000000 0.0 0.0 -1.0 108 143 184 0.950 4 32
1.000000 1.600000 0.000000 0.0 0.0 -1.0 108 143 184 0.950 4 32
1.000000 1.700000 0.000000 0.0 0.0 -1.0 108 143 184 0.950 4 32
1.000000 1.800000 0.000000 0.0 0.0 -1.0 108 143 184 0.950 4 32
1.000000 1.900000 0.000000 0.0 0.0 -1.0 108 143 184 0.950 4 32
1.000000 2.000000 0.000000 0.0 0.0 -1.0 108 143 184 0.950 4 32
1.100000 0.000000 0.000000 0.0 0.0 -1.0 108 143 184 0.950 4 32
1.100000 0.100000 0.000000 0.0 0.0 -1.0 108 143 184 0.950 4 32
1.100000 0.200000 0.000000 0.0 0.0 -1.0 108 143 184 0.950 4 32
1.100000 0.300000 0.000000 0.0 0.0 -1.0 108 143 184 0.950 4 32
1.100000 0.400000 0.000000 0.0 0.0 -1.0 108 143 184 0.950 4 32
1.100000 0.500000 0.000000 0.0 0.0 -1.0 108 143 184 0.950 4 32
1.100000 0.600000 0.000000 0.0 0.0 -1.0 108 143 184 0.950 4 32
1.100000 0.700000 0.000000 0.0 0.0 -1.0 108 143 184 0.950 4 32
1.100000 0.800000 0.000000 0.0 0.0 -1.0 108 143 184 0.950 4 32
1.100000 0.900000 0.000000 0.0 0.0 -1.0 108 143 184 0.950 4 32
1.100000 1.000000 0.000000 0.0 0.0 -1.0 108 143 184 0.950 4 32
1.100000 1.100000 0.000000 0.0 0.0 -1.0 108 143 184 0.950 4 32
1.100000 1.200000 0.000000 0.0 0.0 -1.0 108 143 184 0.950 4 32
1.100000 1.300000 0.000000 0.0 0.0 -1.0 108 143 184 0.950 4 32
1.100000 1.400000 0.000000 0.0 0.0 -1.0 108 143 184 0.950 4 32
1.100000 1.500000 0.000000 0.0 0.0 -1.0 108 143 184 0.950 4 32
1.100000 1.600000 0.000000 0.0 0.0 -1.0 108 143 184 0.950 4 32
1.100000 1.700000 0.000000 0.0 0.0 -1.0 108 143 184 0.950 4 32
1.100000 1.800000 0.000000 0.0 0.0 -1.0 108 143 184 0.950 4 32
1.100000 1.900000 0.000000 0.0 0.0 -1.0 108 143 184 0.950 4 32
1.100000 2.000000 0.000000 0.0 0.0 -1.0 108 143 184 0.950 4 32
1.200000 0.000000 0.000000 0.0 0.0 -1.0 108 143 184 0.950 4 32
1.200000 0.100000 0.000000 0.0 0.0 -1.0 108 143 184 0.950 4 32
1.200000 0.200000 0.000000 0.0 0.0 -1.0 108 143 184 0.950 4 32
1.200000 0.300000 0.000000 0.0 0.0 -1.0 108 143 184 0.950 4 32
1.200000 0.400000 0.000000 0.0 0.0 -1.0 108 143 184 0.950 4 32
1.200000 0.500000 0.000000 0.0 0.0 -1.0 108 143 184 0.950 4 32
1.200000 0.600000 0.000000 0.0 0.0 -1.0 108 143 184 0.950 4 32
1.200000 0.700000 0.000000 0.0 0.0 -1.0 108 143 184 0.950 4 32
1.200000 0.800000 0.000000 0.0 0.0 -1.0 108 143 184 0.950 4 32
1.200000 0.900000 0.000000 0.0 0.0 -1.0 108 143 184 0.950 4 32
1.200000 1.000000 0.000000 0.0 0.0 -1.0 108 143 184 0.950 4 32
1.200000 1.100000 0.000000 0.0 0.0 -1.0 108 143 184 0.950 4 32
1.200000 1.200000 0.000000 0.0 0.0 -1.0 108 143 184 0.950 4 32
1.200000 1.300000 0.000000 0.0 0.0 -1.0 108 143 184 0.950 4 32
1.200000 1.400000 0.000000 0.0 0.0 -1.0 108 143 184 0.950 4 32
1.200000 1.500000 0.000000 0.0 0.0 -1.0 108 143 184 0.950 4 32
1.200000 1.600000 0.000000 0.0 0.0 -1.0 108 143 184 0.950 4 32
1.200000 1.700000 0.000000 0.0 0.0 -1.0 108 143 184 0.950 4 32
1.200000 1.800000 0.000000 0.0 0.0 -1.0 108 143 184 0.950 4 32
1.200000 1.900000 0.000000 0.0 0.0 -1.0 108 143 184 0.950 4 32
1.200000 2.000000 0.000000 0.0 0.0 -1.0 108 143 184 0.950 4 32
1.300000 0.000000 0.000000 0.0 0.0 -1.0 108 143 184 0.950 4 32
1.300000 0.100000 0.000000 0.0 0.0 -1.0 108 143 184 0.950 4 32
1.300000 0.200000 0.000000 0.0 0.0 -1.0 108 143 184 0.950 4 32
1.300000 0.300000 0.000000 0.0 0.0 -1.0 108 143 184 0.950 4 32
1.300000 0.400000 0.000000 0.0 0.0 -1.0 108 143 184 0.950 4 32
1.300000 0.500000 0.000000 0.0 0.0 -1.0 108 143 184 0.950 4 32
1.300000 0.600000 0.000000 0.0 0.0 -1.0 108 143 184 0.950 4 32
1.300000 0.700000 0.000000 0.0 0.0 -1.0 108 143 184 0.950 4 32
1.300000 0.800000 0.000000 0.0 0.0 -1.0 108 143 184 0.950 4 32
1.300000 0.900000 0.000000 0.0 0.0 -1.0 108 143 184 0.950 4 32
1.300000 1.000000 0.000000 0.0 0.0 -1.0 108 143 184 0.950 4 32
1.300000 1.100000 0.000000 0.0 0.0 -1.0 108 143 184 0.950 4 32
1.300000 1.200000 0.000000 0.0 0.0 -1.0 108 143 184 0.950 4 32
1.300000 1.300000 0.000000 0.0 0.0 -1.0 108 143 184 0.950 4 32
1.300000 1.400000 0.000000 0.0 0.0 -1.0 108 143 184 0.950 4 32
1.300000 1.500000 0.000000 0.0 0.0 -1.0 108 143 184 0.950 4 32
1.300000 1.600000 0.000000 0.0 0.0 -1.0 108 143 184 0.950 4 32
1.300000 1.700000 0.000000 0.0 0.0 -1.0 108 143 184 0.950 4 32
1.300000 1.800000 0.000000 0.0 0.0 -1.0 108 143 184 0.950 4 32
1.300000 1.900000 0.000000 0.0 0.0 -1.0 108 143 184 0.950 4 32
1.300000 2.000000 0.000000 0.0 0.0 -1.0 108 143 184 0.950 4 32
1.400000 0.000000 0.000000 0.0 0.0 -1.0 108 143 184 0.950 4 32
1.400000 0.100000 0.000000 0.0 0.0 -1.0 108 143 184 0.950 4 32
1.400000 0.200000 0.000000 0.0 0.0 -1.0 108 143 184 0.950 4 32
1.400000 0.300000 0.000000 0.0 0.0 -1.0 108 143 184 0.950 4 32
1.400000 0.400000 0.000000 0.0 0.0 -1.0 108 143 184 0.950 4 32
1.400000 0.500000 0.000000 0.0 0.0 -1.0 108 143 184 0.950 4 32
1.400000 0.600000 0.000000 0.0 0.0 -1.0 108 143 184 0.950 4 32
1.400000 0.700000 0.000000 0.0 0.0 -1.0 108 143 184 0.950 4 32
1.400000 0.800000 0.000000 0.0 0.0 -1.0 108 143 184 0.950 4 32
1.400000 0.900000 0.000000 0.0 0.0 -1.0 108 143 184 0.950 4 32
1.400000 1.000000 0.000000 0.0 0.0 -1.0 108 143 184 0.950 4 32
1.400000 1.100000 0.000000 0.0 0.0 -1.0 108 143 184 0.950 4 32
1.400000 1.200000 0.000000 0.0 0.0 -1.0 108 143 184 0.950 4 32
1.400000 1.300000 0.000000 0.0 0.0 -1.0 108 143 184 0.950 4 32
1.400000 1.400000 0.000000 0.0 0.0 -1.0 108 143 184 0.950 4 32
1.400000 1.500000 0.000000 0.0 0.0 -1.0 108 143 184 0.950 4 32
1.400000 1.600000 0.000000 0.0 0.0 -1.0 108 143 184 0.950 4 32
1.400000 1.700000 0.000000 0.0 0.0 -1.0 108 143 184 0.950 4 32
1.400000 1.800000 0.000000 0.0 0.0 -1.0 108 143 184 0.950 4 32
1.400000 1.900000 0.000000 0.0 0.0 -1.0 108 143 184 0.950 4 32
1.400000 2.000000 0.000000 0.0 0.0 -1.0 108 143 184 0.950 4 32
1.500000 0.000000 0.000000 0.0 0.0 -1.0 108 143 184 0.950 4 32
1.500000 0.100000 0.000000 0.0 0.0 -1.0 108 143 184 0.950 4 32
1.500000 0.200000 0.000000 0.0 0.0 -1.0 108 143 184 0.950 4 32
1.500000 0.300000 0.000000 0.0 0.0 -1.0 108 143 184 0.950 4 32
1.500000 0.400000 0.000000 0.0 0.0 -1.0 108 143 184 0.950 4 32
1.500000 0.500000 0.000000 0.0 0.0 -1.0 108 143 184 0.950 4 32
1.500000 0.600000 0.000000 0.0 0.0 -1.0 108 143 184 0.950 4 32
1.500000 0.700000 0.000000 0.0 0.0 -1.0 108 143 184 0.950 4 32
1.500000 0.800000 0.000000 0.0 0.0 -1.0 108 143 184 0.950 4 32
1.500000 0.900000 0.000000 0.0 0.0 -1.0 108 143 184 0.950 4 32
1.500000 1.000000 0.000000 0.0 0.0 -1.0 108 143 184 0.950 4 32
1.500000 1.100000 0.000000 0.0 0.0 -1.0 108 143 184 0.950 4 32
1.500000 1.200000 0.000000 0.0 0.0 -1.0 108 143 184 0.950 4 32
1.500000 1.300000 0.000000 0.0 0.0 -1.0 108 143 184 0.950 4 32
1.500000 1.400000 0.000000 0.0 0.0 -1.0 108 143 184 0.950 4 32
1.500000 1.500000 0.000000 0.0 0.0 -1.0 108 143 184 0.950 4 32
1.500000 1.600000 0.000000 0.0 0.0 -1.0 108 143 184 0.950 4 32
1.500000 1.700000 0.000000 0.0 0.0 -1.0 108 143 184 0.950 4 32
1.500000 1.800000 0.000000 0.0 0.0 -1.0 108 143 184 0.950 4 32
1.500000 1.900000 0.000000 0.0 0.0 -1.0 108 143 184 0.950 4 32
1.500000 2.000000 0.000000 0.0 0.0 -1.0 108 143 184 0.950 4 32
1.600000 0.000000 0.000000 0.0 0.0 -1.0 108 143 184 0.950 4 32
1.600000 0.100000 0.000000 0.0 0.0 -1.0 108 143 184 0.950 4 32
1.600000 0.200000 0.000000 0.0 0.0 -1.0 108 143 184 0.950 4 32
1.600000 0.300000 0.000000 0.0 0.0 -1.0 108 143 184 0.950 4 32
1.600000 0.400000 0.000000 0.0 0.0 -1.0 108 143 184 0.950 4 32
1.600000 0.500000 0.000000 0.0 0.0 -1.0 108 143 184 0.950 4 32
1.600000 0.600000 0.000000 0.0 0.0 -1.0 108 143 184 0.950 4 32
1.600000 0.700000 0.000000 0.0 0.0 -1.0 108 143 184 0.950 4 32
1.600000 0.800000 0.000000 0.0 0.0 -1.0 108 143 184 0.950 4 32
1.600000 0.900000 0.000000 0.0 0.0 -1.0 108 143 184 0.950 4 32
1.600000 1.000000 0.000000 0.0 0.0 -1.0 108 143 184 0.950 4 32
1.600000 1.100000 0.000000 0.0 0.0 -1.0 108 143 184 0.950 4 32
1.600000 1.200000 0.000000 0.0 0.0 -1.0 108 143 184 0.950 4 32
1.600000 1.300000 0.000000 0.0 0.0 -1.0 108 143 184 0.950 4 32
1.600000 1.400000 0.000000 0.0 0.0 -1.0 108 143 184 0.950 4 32
1.600000 1.500000 0.000000 0.0 0.0 -1.0 108 143 184 0.950 4 32
1.600000 1.600000 0.000000 0.0 0.0 -1.0 108 143 184 0.950 4 32
1.600000 1.700000 0.000000 0.0 0.0 -1.0 108 143 184 0.950 4 32
1.600000 1.800000 0.000000 0.0 0.0 -1.0 108 143 184 0.950 4 32
1.600000 1.900000 0.000000 0.0 0.0 -1.0 108 143 184 0.950 4 32
1.600000 2.000000 0.000000 0.0 0.0 -1.0 108 143 184 0.950 4 32
1.700000 0.000000 0.000000 0.0 0.0 -1.0 108 143 184 0.950 4 32
1.700000 0.100000 0.000000 0.0 0.0 -1.0 108 143 184 0.950 4 32
1.700000 0.200000 0.000000 0.0 0.0 -1.0 108 143 184 0.950 4 32
1.700000 0.300000 0.000000 0.0 0.0 -1.0 108 143 184 0.950 4 32
1.700000 0.400000 0.000000 0.0 0.0 -1.0 108 143 184 0.950 4 32
1.700000 0.500000 0.000000 0.0 0.0 -1.0 108 143 184 0.950 4 32
1.700000 0.600000 0.000000 0.0 0.0 -1.0 108 143 184 0.950 4 32
1.700000 0.700000 0.000000 0.0 0.0 -1.0 108 143 184 0.950 4 32
1.700000 0.800000 0.000000 0.0 0.0 -1.0 108 143 184 0.950 4 32
1.700000 0.900000 0.000000 0.0 0.0 -1.0 108 143 184 0.950 4 32
1.700000 1.000000 0.000000 0.0 0.0 -1.0 108 143 184 0.950 4 32
1.700000 1.100000 0.000000 0.0 0.0 -1.0 108 143 184 0.950 4 32
1.700000 1.200000 0.000000 0.0 0.0 -1.0 108 143 184 0.950 4 32
1.700000 1.300000 0.000000 0.0 0.0 -1.0 108 143 184 0.950 4 32
1.700000 1.400000 0.000000 0.0 0.0 -1.0 108 143 184 0.950 4 32
1.700000 1.500000 0.000000 0.0 0.0 -1.0 108 143 184 0.950 4 32
1.700000 1.600000 0.000000 0.0 0.0 -1.0 108 143 184 0.950 4 32
1.700000 1.700000 0.000000 0.0 0.0 -1.0 108 143 184 0.950 4 32
1.700000 1.800000 0.000000 0.0 0.0 -1.0 108 143 184 0.950 4 32
1.700000 1.900000 0.000000 0.0 0.0 -1.0 108 143 184 0.950 4 32
1.700000 2.000000 0.000000 0.0 0.0 -1.0 108 143 184 0.950 4 32
1.800000 0.000000 0.000000 0.0 0.0 -1.0 108 143 184 0.950 4 32
1.800000 0.100000 0.000000 0.0 0.0 -1.0 108 143 184 0.950 4 32
1.800000 0.200000 0.000000 0.0 0.0 -1.0 108 143 184 0.950 4 32
1.800000 0.300000 0.000000 0.0 0.0 -1.0 108 143 184 0.950 4 32
1.800000 0.400000 0.000000 0.0 0.0 -1.0 108 143 184 0.950 4 32
1.800000 0.500000 0.000000 0.0 0.0 -1.0 108 143 184 0.950 4 32
1.800000 0.600000 0.000000 0.0 0.0 -1.0 108 143 184 0.950 4 32
1.800000 0.700000 0.000000 0.0 0.0 -1.0 108 143 184 0.950 4 32
1.800000 0.800000 0.000000 0.0 0.0 -1.0 108 143 184 0.950 4 32
1.800000 0.900000 0.000000 0.0 0.0 -1.0 108 143 184 0.950 4 32
1.800000 1.000000 0.000000 0.0 0.0 -1.0 108 143 184 0.950 4 32
1.800000 1.100000 0.000000 0.0 0.0 -1.0 108 143 184 0.950 4 32
1.800000 1.200000 0.000000 0.0 0.0 -1.0 108 143 184 0.950 4 32
1.800000 1.300000 0.000000 0.0 0.0 -1.0 108 143 184 0.950 4 32
1.800000 1.400000 0.000000 0.0 0.0 -1.0 108 143 184 0.950 4 32
1.800000 1.500000 0.000000 0.0 0.0 -1.0 108 143 184 0.950 4 32
1.800000 1.600000 0.000000 0.0 0.0 -1.0 108 143 184 0.950 4 32
1.800000 1.700000 0.000000 0.0 0.0 -1.0 108 143 184 0.950 4 32
1.800000 1.800000 0.000000 0.0 0.0 -1.0 108 143 184 0.950 4 32
1.800000 1.900000 0.000000 0.0 0.0 -1.0 108 143 184 0.950 4 32
1.800000 2.000000 0.000000 0.0 0.0 -1.0 108 143 184 0.950 4 32
1.900000 0.000000 0.000000 0.0 0.0 -1.0 108 143 184 0.950 4 32
1.900000 0.100000 0.000000 0.0 0.0 -1.0 108 143 184 0.950 4 32
1.900000 0.200000 0.000000 0.0 0.0 -1.0 108 143 184 0.950 4 32
1.900000 0.300000 0.000000 0.0 0.0 -1.0 108 143 184 0.950 4 32
1.900000 0.400000 0.000000 0.0 0.0 -1.0 108 143 184 0.950 4 32
1.900000 0.500000 0.000000 0.0 0.0 -1.0 108 143 184 0.950 4 32
1.900000 0.600000 0.000000 0.0 0.0 -1.0 108 143 184 0.950 4 32
1.900000 0.700000 0.000000 0.0 0.0 -1.0 108 143 184 0.950 4 32
1.900000 0.800000 0.000000 0.0 0.0 -1.0 108 143 184 0.950 4 32
1.900000 0.900000 0.000000 0.0 0.0 -1.0 108 143 184 0.950 4 32
1.900000 1.000000 0.000000 0.0 0.0 -1.0 108 143 184 0.950 4 32
1.900000 1.100000 0.000000 0.0 0.0 -1.0 108 143 184 0.950 4 32
1.900000 1.200000 0.000000 0.0 0.0 -1.0 108 143 184 0.950 4 32
1.900000 1.300000 0.000000 0.0 0.0 -1.0 108 143 184 0.950 4 32
1.900000 1.400000 0.000000 0.0 0.0 -1.0 108 143 184 0.950 4 32
1.900000 1.500000 0.000000 0.0 0.0 -1.0 108 143 184 0.950 4 32
1.900000 1.600000 0.000000 0.0 0.0 -1.0 108 143 184 0.950 4 32
1.900000 1.700000 0.000000 0.0 0.0 -1.0 108 143 184 0.950 4 32
1.900000 1.800000 0.000000 0.0 0.0 -1.0 108 143 184 0.950 4 32
1.900000 1.900000 0.000000 0.0 0.0 -1.0 108 143 184 0.950 4 32
1.900000 2.000000 0.000000 0.0 0.0 -1.0 108 143 184 0.950 4 32
2.000000 0.000000 0.000000 0.0 0.0 -1.0 108 143 184 0.950 4 32
2.000000 0.100000 0.000000 0.0 0.0 -1.0 108 143 184 0.950 4 32
2.000000 0.200000 0.000000 0.0 0.0 -1.0 108 143 184 0.950 4 32
2.000000 0.300000 0.000000 0.0 0.0 -1.0 108 143 184 0.950 4 32
2.000000 0.400000 0.000000 0.0 0.0 -1.0 108 143 184 0.950 4 32
2.000000 0.500000 0.000000 0.0 0.0 -1.0 108 143 184 0.950 4 32
2.000000 0.600000 0.000000 0.0 0.0 -1.0 108 143 184 0.950 4 32
2.000000 0.700000 0.000000 0.0 0.0 -1.0 108 143 184 0.950 4 32
2.000000 0.800000 0.000000 0.0 0.0 -1.0 108 143 184 0.950 4 32
2.000000 0.900000 0.000000 0.0 0.0 -1.0 108 143 184 0.950 4 32
2.000000 1.000000 0.000000 0.0 0.0 -1.0 108 143 184 0.950 4 32
2.000000 1.100000 0.000000 0.0 0.0 -1.0 108 143 184 0.950 4 32
2.000000 1.200000 0.000000 0.0 0.0 -1.0 108 143 184 0.950 4 32
2.000000 1.300000 0.000000 0.0 0.0 -1.0 108 143 184 0.950 4 32
2.000000 1.400000 0.000000 0.0 0.0 -1.0 108 143 184 0.950 4 32
2.000000 1.500000 0.000000 0.0 0.0 -1.0 108 143 184 0.950 4 32
2.000000 1.600000 0.000000 0.0 0.0 -1.0 108 143 184 0.950 4 32
2.000000 1.700000 0.000000 0.0 0.0 -1.0 108 143 184 0.950 4 32
2.000000 1.800000 0.000000 0.0 0.0 -1.0 108 143 184 0.950 4 32
2.000000 1.900000 0.000000 0.0 0.0 -1.0 108 143 184 0.950 4 32
2.000000 2.000000 0.000000 0.0 0.0 -1.0 108 143 184 0.950 4 32
