ply
format ascii 1.0
comment synthetic observed-surface fixture; generated, not reconstructed
element vertex 400
property float x
property float y
property float z
property float nx
property float ny
property float nz
property uchar red
property uchar green
property uchar blue
property float confidence
property uint support_count
property uint source_view_id
end_header
-1.550000 0.500000 0.000000 0.0 0.0 1.0 55 61 68 0.980 6 40
-1.550000 0.600000 0.000000 0.0 0.0 1.0 55 61 68 0.980 6 40
-1.550000 0.700000 0.000000 0.0 0.0 1.0 55 61 68 0.980 6 40
-1.550000 0.800000 0.000000 0.0 0.0 1.0 55 61 68 0.980 6 40
-1.550000 0.900000 0.000000 0.0 0.0 1.0 55 61 68 0.980 6 40
-1.550000 1.000000 0.000000 0.0 0.0 1.0 55 61 68 0.980 6 40
-1.550000 1.100000 0.000000 0.0 0.0 1.0 55 61 68 0.980 6 40
-1.550000 1.200000 0.000000 0.0 0.0 1.0 55 61 68 0.980 6 40
-1.550000 1.300000 0.000000 0.0 0.0 1.0 55 61 68 0.980 6 40
-1.550000 1.400000 0.000000 0.0 0.0 1.0 55 61 68 0.980 6 40
-1.550000 1.500000 0.000000 0.0 0.0 1.0 55 61 68 0.980 6 40
-1.550000 1.600000 0.000000 0.0 0.0 1.0 55 61 68 0.980 6 40
-1.550000 1.700000 0.000000 0.0 0.0 1.0 55 61 68 0.980 6 40
-1.550000 1.800000 0.000000 0.0 0.0 1.0 55 61 68 0.980 6 40
-1.550000 1.900000 0.000000 0.0 0.0 1.0 55 61 68 0.980 6 40
-1.550000 2.000000 0.000000 0.0 0.0 1.0 55 61 68 0.980 6 40
-1.550000 2.100000 0.000000 0.0 0.0 1.0 55 61 68 0.980 6 40
-1.550000 2.200000 0.000000 0.0 0.0 1.0 55 61 68 0.980 6 40
-1.550000 2.300000 0.000000 0.0 0.0 1.0 55 61 68 0.980 6 40
-1.550000 2.400000 0.000000 0.0 0.0 1.0 55 61 68 0.980 6 40
-1.550000 2.500000 0.000000 0.0 0.0 1.0 55 61 68 0.980 6 40
-1.550000 2.600000 0.000000 0.0 0.0 1.0 55 61 68 0.980 6 40
-1.550000 2.700000 0.000000 0.0 0.0 1.0 55 61 68 0.980 6 40
-1.550000 2.800000 0.000000 0.0 0.0 1.0 55 61 68 0.980 6 40
-1.550000 2.900000 0.000000 0.0 0.0 1.0 55 61 68 0.980 6 40
-1.550000 3.000000 0.000000 0.0 0.0 1.0 55 61 68 0.980 6 40
-1.450000 0.500000 0.000000 0.0 0.0 1.0 55 61 68 0.980 6 40
-1.450000 0.600000 0.000000 0.0 0.0 1.0 55 61 68 0.980 6 40
-1.450000 0.700000 0.000000 0.0 0.0 1.0 55 61 68 0.980 6 40
-1.450000 0.800000 0.000000 0.0 0.0 1.0 55 61 68 0.980 6 40
-1.450000 0.900000 0.000000 0.0 0.0 1.0 55 61 68 0.980 6 40
-1.450000 1.000000 0.000000 0.0 0.0 1.0 55 61 68 0.980 6 40
-1.450000 1.100000 0.000000 0.0 0.0 1.0 55 61 68 0.980 6 40
-1.450000 1.200000 0.000000 0.0 0.0 1.0 55 61 68 0.980 6 40
-1.450000 1.300000 0.000000 0.0 0.0 1.0 55 61 68 0.980 6 40
-1.450000 1.400000 0.000000 0.0 0.0 1.0 55 61 68 0.980 6 40
-1.450000 1.500000 0.000000 0.0 0.0 1.0 55 61 68 0.980 6 40
-1.450000 1.600000 0.000000 0.0 0.0 1.0 55 61 68 0.980 6 40
-1.450000 1.700000 0.000000 0.0 0.0 1.0 55 61 68 0.980 6 40
-1.450000 1.800000 0.000000 0.0 0.0 1.0 55 61 68 0.980 6 40
-1.450000 1.900000 0.000000 0.0 0.0 1.0 55 61 68 0.980 6 40
-1.450000 2.000000 0.000000 0.0 0.0 1.0 55 61 68 0.980 6 40
-1.450000 2.100000 0.000000 0.0 0.0 1.0 55 61 68 0.980 6 40
-1.450000 2.200000 0.000000 0.0 0.0 1.0 55 61 68 0.980 6 40
-1.450000 2.300000 0.000000 0.0 0.0 1.0 55 61 68 0.980 6 40
-1.450000 2.400000 0.000000 0.0 0.0 1.0 55 61 68 0.980 6 40
-1.450000 2.500000 0.000000 0.0 0.0 1.0 55 61 68 0.980 6 40
-1.450000 2.600000 0.000000 0.0 0.0 1.0 55 61 68 0.980 6 40
-1.450000 2.700000 0.000000 0.0 0.0 1.0 55 61 68 0.980 6 40
-1.450000 2.800000 0.000000 0.0 0.0 1.0 55 61 68 0.980 6 40
-1.450000 2.900000 0.000000 0.0 0.0 1.0 55 61 68 0.980 6 40
-1.450000 3.000000 0.000000 0.0 0.0 1.0 55 61 68 0.980 6 40
-0.550000 0.500000 0.000000 0.0 0.0 1.0 55 61 68 0.980 6 41
-0.550000 0.600000 0.000000 0.0 0.0 1.0 55 61 68 0.980 6 41
-0.550000 0.700000 0.000000 0.0 0.0 1.0 55 61 68 0.980 6 41
-0.550000 0.800000 0.000000 0.0 0.0 1.0 55 61 68 0.980 6 41
-0.550000 0.900000 0.000000 0.0 0.0 1.0 55 61 68 0.980 6 41
-0.550000 1.000000 0.000000 0.0 0.0 1.0 55 61 68 0.980 6 41
-0.550000 1.100000 0.000000 0.0 0.0 1.0 55 61 68 0.980 6 41
-0.550000 1.200000 0.000000 0.0 0.0 1.0 55 61 68 0.980 6 41
-0.550000 1.300000 0.000000 0.0 0.0 1.0 55 61 68 0.980 6 41
-0.550000 1.400000 0.000000 0.0 0.0 1.0 55 61 68 0.980 6 41
-0.550000 1.500000 0.000000 0.0 0.0 1.0 55 61 68 0.980 6 41
-0.550000 1.600000 0.000000 0.0 0.0 1.0 55 61 68 0.980 6 41
-0.550000 1.700000 0.000000 0.0 0.0 1.0 55 61 68 0.980 6 41
-0.550000 1.800000 0.000000 0.0 0.0 1.0 55 61 68 0.980 6 41
-0.550000 1.900000 0.000000 0.0 0.0 1.0 55 61 68 0.980 6 41
-0.550000 2.000000 0.000000 0.0 0.0 1.0 55 61 68 0.980 6 41
-0.550000 2.100000 0.000000 0.0 0.0 1.0 55 61 68 0.980 6 41
-0.550000 2.200000 0.000000 0.0 0.0 1.0 55 61 68 0.980 6 41
-0.550000 2.300000 0.000000 0.0 0.0 1.0 55 61 68 0.980 6 41
-0.550000 2.400000 0.000000 0.0 0.0 1.0 55 61 68 0.980 6 41
-0.550000 2.500000 0.000000 0.0 0.0 1.0 55 61 68 0.980 6 41
-0.550000 2.600000 0.000000 0.0 0.0 1.0 55 61 68 0.980 6 41
-0.550000 2.700000 0.000000 0.0 0.0 1.0 55 61 68 0.980 6 41
-0.550000 2.800000 0.000000 0.0 0.0 1.0 55 61 68 0.980 6 41
-0.550000 2.900000 0.000000 0.0 0.0 1.0 55 61 68 0.980 6 41
-0.550000 3.000000 0.000000 0.0 0.0 1.0 55 61 68 0.980 6 41
-0.450000 0.500000 0.000000 0.0 0.0 1.0 55 61 68 0.980 6 41
-0.450000 0.600000 0.000000 0.0 0.0 1.0 55 61 68 0.980 6 41
-0.450000 0.700000 0.000000 0.0 0.0 1.0 55 61 68 0.980 6 41
-0.450000 0.800000 0.000000 0.0 0.0 1.0 55 61 68 0.980 6 41
-0.450000 0.900000 0.000000 0.0 0.0 1.0 55 61 68 0.980 6 41
-0.450000 1.000000 0.000000 0.0 0.0 1.0 55 61 68 0.980 6 41
-0.450000 1.100000 0.000000 0.0 0.0 1.0 55 61 68 0.980 6 41
-0.450000 1.200000 0.000000 0.0 0.0 1.0 55 61 68 0.980 6 41
-0.450000 1.300000 0.000000 0.0 0.0 1.0 55 61 68 0.980 6 41
-0.450000 1.400000 0.000000 0.0 0.0 1.0 55 61 68 0.980 6 41
-0.450000 1.500000 0.000000 0.0 0.0 1.0 55 61 68 0.980 6 41
-0.450000 1.600000 0.000000 0.0 0.0 1.0 55 61 68 0.980 6 41
-0.450000 1.700000 0.000000 0.0 0.0 1.0 55 61 68 0.980 6 41
-0.450000 1.800000 0.000000 0.0 0.0 1.0 55 61 68 0.980 6 41
-0.450000 1.900000 0.000000 0.0 0.0 1.0 55 61 68 0.980 6 41
-0.450000 2.000000 0.000000 0.0 0.0 1.0 55 61 68 0.980 6 41
-0.450000 2.100000 0.000000 0.0 0.0 1.0 55 61 68 0.980 6 41
-0.450000 2.200000 0.000000 0.0 0.0 1.0 55 61 68 0.980 6 41
-0.450000 2.300000 0.000000 0.0 0.0 1.0 55 61 68 0.980 6 41
-0.450000 2.400000 0.000000 0.0 0.0 1.0 55 61 68 0.980 6 41
-0.450000 2.500000 0.000000 0.0 0.0 1.0 55 61 68 0.980 6 41
-0.450000 2.600000 0.000000 0.0 0.0 1.0 55 61 68 0.980 6 41
-0.450000 2.700000 0.000000 0.0 0.0 1.0 55 61 68 0.980 6 41
-0.450000 2.800000 0.000000 0.0 0.0 1.0 55 61 68 0.980 6 41
-0.450000 2.900000 0.000000 0.0 0.0 1.0 55 61 68 0.980 6 41
-0.450000 3.000000 0.000000 0.0 0.0 1.0 55 61 68 0.980 6 41
0.450000 0.500000 0.000000 0.0 0.0 1.0 55 61 68 0.980 6 42
0.450000 0.600000 0.000000 0.0 0.0 1.0 55 61 68 0.980 6 42
0.450000 0.700000 0.000000 0.0 0.0 1.0 55 61 68 0.980 6 42
0.450000 0.800000 0.000000 0.0 0.0 1.0 55 61 68 0.980 6 42
0.450000 0.900000 0.000000 0.0 0.0 1.0 55 61 68 0.980 6 42
0.450000 1.000000 0.000000 0.0 0.0 1.0 55 61 68 0.980 6 42
0.450000 1.100000 0.000000 0.0 0.0 1.0 55 61 68 0.980 6 42
0.450000 1.200000 0.000000 0.0 0.0 1.0 55 61 68 0.980 6 42
0.450000 1.300000 0.000000 0.0 0.0 1.0 55 61 68 0.980 6 42
0.450000 1.400000 0.000000 0.0 0.0 1.0 55 61 68 0.980 6 42
0.450000 1.500000 0.000000 0.0 0.0 1.0 55 61 68 0.980 6 42
0.450000 1.600000 0.000000 0.0 0.0 1.0 55 61 68 0.980 6 42
0.450000 1.700000 0.000000 0.0 0.0 1.0 55 61 68 0.980 6 42
0.450000 1.800000 0.000000 0.0 0.0 1.0 55 61 68 0.980 6 42
0.450000 1.900000 0.000000 0.0 0.0 1.0 55 61 68 0.980 6 42
0.450000 2.000000 0.000000 0.0 0.0 1.0 55 61 68 0.980 6 42
0.450000 2.100000 0.000000 0.0 0.0 1.0 55 61 68 0.980 6 42
0.450000 2.200000 0.000000 0.0 0.0 1.0 55 61 68 0.980 6 42
0.450000 2.300000 0.000000 0.0 0.0 1.0 55 61 68 0.980 6 42
0.450000 2.400000 0.000000 0.0 0.0 1.0 55 61 68 0.980 6 42
0.450000 2.500000 0.000000 0.0 0.0 1.0 55 61 68 0.980 6 42
0.450000 2.600000 0.000000 0.0 0.0 1.0 55 61 68 0.980 6 42
0.450000 2.700000 0.000000 0.0 0.0 1.0 55 61 68 0.980 6 42
0.450000 2.800000 0.000000 0.0 0.0 1.0 55 61 68 0.980 6 42
0.450000 2.900000 0.000000 0.0 0.0 1.0 55 61 68 0.980 6 42
0.450000 3.000000 0.000000 0.0 0.0 1.0 55 61 68 0.980 6 42
0.550000 0.500000 0.000000 0.0 0.0 1.0 55 61 68 0.980 6 42
0.550000 0.600000 0.000000 0.0 0.0 1.0 55 61 68 0.980 6 42
0.550000 0.700000 0.000000 0.0 0.0 1.0 55 61 68 0.980 6 42
0.550000 0.800000 0.000000 0.0 0.0 1.0 55 61 68 0.980 6 42
0.550000 0.900000 0.000000 0.0 0.0 1.0 55 61 68 0.980 6 42
0.550000 1.000000 0.000000 0.0 0.0 1.0 55 61 68 0.980 6 42
0.550000 1.100000 0.000000 0.0 0.0 1.0 55 61 68 0.980 6 42
0.550000 1.200000 0.000000 0.0 0.0 1.0 55 61 68 0.980 6 42
0.550000 1.300000 0.000000 0.0 0.0 1.0 55 61 68 0.980 6 42
0.550000 1.400000 0.000000 0.0 0.0 1.0 55 61 68 0.980 6 42
0.550000 1.500000 0.000000 0.0 0.0 1.0 55 61 68 0.980 6 42
0.550000 1.600000 0.000000 0.0 0.0 1.0 55 61 68 0.980 6 42
0.550000 1.700000 0.000000 0.0 0.0 1.0 55 61 68 0.980 6 42
0.550000 1.800000 0.000000 0.0 0.0 1.0 55 61 68 0.980 6 42
0.550000 1.900000 0.000000 0.0 0.0 1.0 55 61 68 0.980 6 42
0.550000 2.000000 0.000000 0.0 0.0 1.0 55 61 68 0.980 6 42
0.550000 2.100000 0.000000 0.0 0.0 1.0 55 61 68 0.980 6 42
0.550000 2.200000 0.000000 0.0 0.0 1.0 55 61 68 0.980 6 42
0.550000 2.300000 0.000000 0.0 0.0 1.0 55 61 68 0.980 6 42
0.550000 2.400000 0.000000 0.0 0.0 1.0 55 61 68 0.980 6 42
0.550000 2.500000 0.000000 0.0 0.0 1.0 55 61 68 0.980 6 42
0.550000 2.600000 0.000000 0.0 0.0 1.0 55 61 68 0.980 6 42
0.550000 2.700000 0.000000 0.0 0.0 1.0 55 61 68 0.980 6 42
0.550000 2.800000 0.000000 0.0 0.0 1.0 55 61 68 0.980 6 42
0.550000 2.900000 0.000000 0.0 0.0 1.0 55 61 68 0.980 6 42
0.550000 3.000000 0.000000 0.0 0.0 1.0 55 61 68 0.980 6 42
1.450000 0.500000 0.000000 0.0 0.0 1.0 55 61 68 0.980 6 43
1.450000 0.600000 0.000000 0.0 0.0 1.0 55 61 68 0.980 6 43
1.450000 0.700000 0.000000 0.0 0.0 1.0 55 61 68 0.980 6 43
1.450000 0.800000 0.000000 0.0 0.0 1.0 55 61 68 0.980 6 43
1.450000 0.900000 0.000000 0.0 0.0 1.0 55 61 68 0.980 6 43
1.450000 1.000000 0.000000 0.0 0.0 1.0 55 61 68 0.980 6 43
1.450000 1.100000 0.000000 0.0 0.0 1.0 55 61 68 0.980 6 43
1.450000 1.200000 0.000000 0.0 0.0 1.0 55 61 68 0.980 6 43
1.450000 1.300000 0.000000 0.0 0.0 1.0 55 61 68 0.980 6 43
1.450000 1.400000 0.000000 0.0 0.0 1.0 55 61 68 0.980 6 43
1.450000 1.500000 0.000000 0.0 0.0 1.0 55 61 68 0.980 6 43
1.450000 1.600000 0.000000 0.0 0.0 1.0 55 61 68 0.980 6 43
1.450000 1.700000 0.000000 0.0 0.0 1.0 55 61 68 0.980 6 43
1.450000 1.800000 0.000000 0.0 0.0 1.0 55 61 68 0.980 6 43
1.450000 1.900000 0.000000 0.0 0.0 1.0 55 61 68 0.980 6 43
1.450000 2.000000 0.000000 0.0 0.0 1.0 55 61 68 0.980 6 43
1.450000 2.100000 0.000000 0.0 0.0 1.0 55 61 68 0.980 6 43
1.450000 2.200000 0.000000 0.0 0.0 1.0 55 61 68 0.980 6 43
1.450000 2.300000 0.000000 0.0 0.0 1.0 55 61 68 0.980 6 43
1.450000 2.400000 0.000000 0.0 0.0 1.0 55 61 68 0.980 6 43
1.450000 2.500000 0.000000 0.0 0.0 1.0 55 61 68 0.980 6 43
1.450000 2.600000 0.000000 0.0 0.0 1.0 55 61 68 0.980 6 43
1.450000 2.700000 0.000000 0.0 0.0 1.0 55 61 68 0.980 6 43
1.450000 2.800000 0.000000 0.0 0.0 1.0 55 61 68 0.980 6 43
1.450000 2.900000 0.000000 0.0 0.0 1.0 55 61 68 0.980 6 43
1.450000 3.000000 0.000000 0.0 0.0 1.0 55 61 68 0.980 6 43
1.550000 0.500000 0.000000 0.0 0.0 1.0 55 61 68 0.980 6 43
1.550000 0.600000 0.000000 0.0 0.0 1.0 55 61 68 0.980 6 43
1.550000 0.700000 0.000000 0.0 0.0 1.0 55 61 68 0.980 6 43
1.550000 0.800000 0.000000 0.0 0.0 1.0 55 61 68 0.980 6 43
1.550000 0.900000 0.000000 0.0 0.0 1.0 55 61 68 0.980 6 43
1.550000 1.000000 0.000000 0.0 0.0 1.0 55 61 68 0.980 6 43
1.550000 1.100000 0.000000 0.0 0.0 1.0 55 61 68 0.980 6 43
1.550000 1.200000 0.000000 0.0 0.0 1.0 55 61 68 0.980 6 43
1.550000 1.300000 0.000000 0.0 0.0 1.0 55 61 68 0.980 6 43
1.550000 1.400000 0.000000 0.0 0.0 1.0 55 61 68 0.980 6 43
1.550000 1.500000 0.000000 0.0 0.0 1.0 55 61 68 0.980 6 43
1.550000 1.600000 0.000000 0.0 0.0 1.0 55 61 68 0.980 6 43
1.550000 1.700000 0.000000 0.0 0.0 1.0 55 61 68 0.980 6 43
1.550000 1.800000 0.000000 0.0 0.0 1.0 55 61 68 0.980 6 43
1.550000 1.900000 0.000000 0.0 0.0 1.0 55 61 68 0.980 6 43
1.550000 2.000000 0.000000 0.0 0.0 1.0 55 61 68 0.980 6 43
1.550000 2.100000 0.000000 0.0 0.0 1.0 55 61 68 0.980 6 43
1.550000 2.200000 0.000000 0.0 0.0 1.0 55 61 68 0.980 6 43
1.550000 2.300000 0.000000 0.0 0.0 1.0 55 61 68 0.980 6 43
1.550000 2.400000 0.000000 0.0 0.0 1.0 55 61 68 0.980 6 43
1.550000 2.500000 0.000000 0.0 0.0 1.0 55 61 68 0.980 6 43
1.550000 2.600000 0.000000 0.0 0.0 1.0 55 61 68 0.980 6 43
1.550000 2.700000 0.000000 0.0 0.0 1.0 55 61 68 0.980 6 43
1.550000 2.800000 0.000000 0.0 0.0 1.0 55 61 68 0.980 6 43
1.550000 2.900000 0.000000 0.0 0.0 1.0 55 61 68 0.980 6 43
1.550000 3.000000 0.000000 0.0 0.0 1.0 55 61 68 0.980 6 43
-1.550000 0.450000 0.000000 0.0 0.0 1.0 55 61 68 0.980 6 50
-1.550000 0.550000 0.000000 0.0 0.0 1.0 55 61 68 0.980 6 50
-1.450000 0.450000 0.000000 0.0 0.0 1.0 55 61 68 0.980 6 50
-1.450000 0.550000 0.000000 0.0 0.0 1.0 55 61 68 0.980 6 50
-1.350000 0.450000 0.000000 0.0 0.0 1.0 55 61 68 0.980 6 50
-1.350000 0.550000 0.000000 0.0 0.0 1.0 55 61 68 0.980 6 50
-1.250000 0.450000 0.000000 0.0 0.0 1.0 55 61 68 0.980 6 50
-1.250000 0.550000 0.000000 0.0 0.0 1.0 55 61 68 0.980 6 50
-1.150000 0.450000 0.000000 0.0 0.0 1.0 55 61 68 0.980 6 50
-1.150000 0.550000 0.000000 0.0 0.0 1.0 55 61 68 0.980 6 50
-1.050000 0.450000 0.000000 0.0 0.0 1.0 55 61 68 0.980 6 50
-1.050000 0.550000 0.000000 0.0 0.0 1.0 55 61 68 0.980 6 50
-0.950000 0.450000 0.000000 0.0 0.0 1.0 55 61 68 0.980 6 50
-0.950000 0.550000 0.000000 0.0 0.0 1.0 55 61 68 0.980 6 50
-0.850000 0.450000 0.000000 0.0 0.0 1.0 55 61 68 0.980 6 50
-0.850000 0.550000 0.000000 0.0 0.0 1.0 55 61 68 0.980 6 50
-0.750000 0.450000 0.000000 0.0 0.0 1.0 55 61 68 0.980 6 50
-0.750000 0.550000 0.000000 0.0 0.0 1.0 55 61 68 0.980 6 50
-0.650000 0.450000 0.000000 0.0 0.0 1.0 55 61 68 0.980 6 50
-0.650000 0.550000 0.000000 0.0 0.0 1.0 55 61 68 0.980 6 50
-0.550000 0.450000 0.000000 0.0 0.0 1.0 55 61 68 0.980 6 50
-0.550000 0.550000 0.000000 0.0 0.0 1.0 55 61 68 0.980 6 50
-0.450000 0.450000 0.000000 0.0 0.0 1.0 55 61 68 0.980 6 50
-0.450000 0.550000 0.000000 0.0 0.0 1.0 55 61 68 0.980 6 50
-0.350000 0.450000 0.000000 0.0 0.0 1.0 55 61 68 0.980 6 50
-0.350000 0.550000 0.000000 0.0 0.0 1.0 55 61 68 0.980 6 50
-0.250000 0.450000 0.000000 0.0 0.0 1.0 55 61 68 0.980 6 50
-0.250000 0.550000 0.000000 0.0 0.0 1.0 55 61 68 0.980 6 50
-0.150000 0.450000 0.000000 0.0 0.0 1.0 55 61 68 0.980 6 50
-0.150000 0.550000 0.000000 0.0 0.0 1.0 55 61 68 0.980 6 50
-0.050000 0.450000 0.000000 0.0 0.0 1.0 55 61 68 0.980 6 50
-0.050000 0.550000 0.000000 0.0 0.0 1.0 55 61 68 0.980 6 50
0.050000 0.450000 0.000000 0.0 0.0 1.0 55 61 68 0.980 6 50
0.050000 0.550000 0.000000 0.0 0.0 1.0 55 61 68 0.980 6 50
0.150000 0.450000 0.000000 0.0 0.0 1.0 55 61 68 0.980 6 50
0.150000 0.550000 0.000000 0.0 0.0 1.0 55 61 68 0.980 6 50
0.250000 0.450000 0.000000 0.0 0.0 1.0 55 61 68 0.980 6 50
0.250000 0.550000 0.000000 0.0 0.0 1.0 55 61 68 0.980 6 50
0.350000 0.450000 0.000000 0.0 0.0 1.0 55 61 68 0.980 6 50
0.350000 0.550000 0.000000 0.0 0.0 1.0 55 61 68 0.980 6 50
0.450000 0.450000 0.000000 0.0 0.0 1.0 55 61 68 0.980 6 50
0.450000 0.550000 0.000000 0.0 0.0 1.0 55 61 68 0.980 6 50
0.550000 0.450000 0.000000 0.0 0.0 1.0 55 61 68 0.980 6 50
0.550000 0.550000 0.000000 0.0 0.0 1.0 55 61 68 0.980 6 50
0.650000 0.450000 0.000000 0.0 0.0 1.0 55 61 68 0.980 6 50
0.650000 0.550000 0.000000 0.0 0.0 1.0 55 61 68 0.980 6 50
0.750000 0.450000 0.000000 0.0 0.0 1.0 55 61 68 0.980 6 50
0.750000 0.550000 0.000000 0.0 0.0 1.0 55 61 68 0.980 6 50
0.850000 0.450000 0.000000 0.0 0.0 1.0 55 61 68 0.980 6 50
0.850000 0.550000 0.000000 0.0 0.0 1.0 55 61 68 0.980 6 50
0.950000 0.450000 0.000000 0.0 0.0 1.0 55 61 68 0.980 6 50
0.950000 0.550000 0.000000 0.0 0.0 1.0 55 61 68 0.980 6 50
1.050000 0.450000 0.000000 0.0 0.0 1.0 55 61 68 0.980 6 50
1.050000 0.550000 0.000000 0.0 0.0 1.0 55 61 68 0.980 6 50
1.150000 0.450000 0.000000 0.0 0.0 1.0 55 61 68 0.980 6 50
1.150000 0.550000 0.000000 0.0 0.0 1.0 55 61 68 0.980 6 50
1.250000 0.450000 0.000000 0.0 0.0 1.0 55 61 68 0.980 6 50
1.250000 0.550000 0.000000 0.0 0.0 1.0 55 61 68 0.980 6 50
1.350000 0.450000 0.000000 0.0 0.0 1.0 55 61 68 0.980 6 50
1.350000 0.550000 0.000000 0.0 0.0 1.0 55 61 68 0.980 6 50
1.450000 0.450000 0.000000 0.0 0.0 1.0 55 61 68 0.980 6 50
1.450000 0.550000 0.000000 0.0 0.0 1.0 55 61 68 0.980 6 50
1.550000 0.450000 0.000000 0.0 0.0 1.0 55 61 68 0.980 6 50
1.550000 0.550000 0.000000 0.0 0.0 1.0 55 61 68 0.980 6 50
-1.550000 1.700000 0.000000 0.0 0.0 1.0 55 61 68 0.980 6 51
-1.550000 1.800000 0.000000 0.0 0.0 1.0 55 61 68 0.980 6 51
-1.450000 1.700000 0.000000 0.0 0.0 1.0 55 61 68 0.980 6 51
-1.450000 1.800000 0.000000 0.0 0.0 1.0 55 61 68 0.980 6 51
-1.350000 1.700000 0.000000 0.0 0.0 1.0 55 61 68 0.980 6 51
-1.350000 1.800000 0.000000 0.0 0.0 1.0 55 61 68 0.980 6 51
-1.250000 1.700000 0.000000 0.0 0.0 1.0 55 61 68 0.980 6 51
-1.250000 1.800000 0.000000 0.0 0.0 1.0 55 61 68 0.980 6 51
-1.150000 1.700000 0.000000 0.0 0.0 1.0 55 61 68 0.980 6 51
-1.150000 1.800000 0.000000 0.0 0.0 1.0 55 61 68 0.980 6 51
-1.050000 1.700000 0.000000 0.0 0.0 1.0 55 61 68 0.980 6 51
-1.050000 1.800000 0.000000 0.0 0.0 1.0 55 61 68 0.980 6 51
-0.950000 1.700000 0.000000 0.0 0.0 1.0 55 61 68 0.980 6 51
-0.950000 1.800000 0.000000 0.0 0.0 1.0 55 61 68 0.980 6 51
-0.850000 1.700000 0.000000 0.0 0.0 1.0 55 61 68 0.980 6 51
-0.850000 1.800000 0.000000 0.0 0.0 1.0 55 61 68 0.980 6 51
-0.750000 1.700000 0.000000 0.0 0.0 1.0 55 61 68 0.980 6 51
-0.750000 1.800000 0.000000 0.0 0.0 1.0 55 61 68 0.980 6 51
-0.650000 1.700000 0.000000 0.0 0.0 1.0 55 61 68 0.980 6 51
-0.650000 1.800000 0.000000 0.0 0.0 1.0 55 61 68 0.980 6 51
-0.550000 1.700000 0.000000 0.0 0.0 1.0 55 61 68 0.980 6 51
-0.550000 1.800000 0.000000 0.0 0.0 1.0 55 61 68 0.980 6 51
-0.450000 1.700000 0.000000 0.0 0.0 1.0 55 61 68 0.980 6 51
-0.450000 1.800000 0.000000 0.0 0.0 1.0 55 61 68 0.980 6 51
-0.350000 1.700000 0.000000 0.0 0.0 1.0 55 61 68 0.980 6 51
-0.350000 1.800000 0.000000 0.0 0.0 1.0 55 61 68 0.980 6 51
-0.250000 1.700000 0.000000 0.0 0.0 1.0 55 61 68 0.980 6 51
-0.250000 1.800000 0.000000 0.0 0.0 1.0 55 61 68 0.980 6 51
-0.150000 1.700000 0.000000 0.0 0.0 1.0 55 61 68 0.980 6 51
-0.150000 1.800000 0.000000 0.0 0.0 1.0 55 61 68 0.980 6 51
-0.050000 1.700000 0.000000 0.0 0.0 1.0 55 61 68 0.980 6 51
-0.050000 1.800000 0.000000 0.0 0.0 1.0 55 61 68 0.980 6 51
0.050000 1.700000 0.000000 0.0 0.0 1.0 55 61 68 0.980 6 51
0.050000 1.800000 0.000000 0.0 0.0 1.0 55 61 68 0.980 6 51
0.150000 1.700000 0.000000 0.0 0.0 1.0 55 61 68 0.980 6 51
0.150000 1.800000 0.000000 0.0 0.0 1.0 55 61 68 0.980 6 51
0.250000 1.700000 0.000000 0.0 0.0 1.0 55 61 68 0.980 6 51
0.250000 1.800000 0.000000 0.0 0.0 1.0 55 61 68 0.980 6 51
0.350000 1.700000 0.000000 0.0 0.0 1.0 55 61 68 0.980 6 51
0.350000 1.800000 0.000000 0.0 0.0 1.0 55 61 68 0.980 6 51
0.450000 1.700000 0.000000 0.0 0.0 1.0 55 61 68 0.980 6 51
0.450000 1.800000 0.000000 0.0 0.0 1.0 55 61 68 0.980 6 51
0.550000 1.700000 0.000000 0.0 0.0 1.0 55 61 68 0.980 6 51
0.550000 1.800000 0.000000 0.0 0.0 1.0 55 61 68 0.980 6 51
0.650000 1.700000 0.000000 0.0 0.0 1.0 55 61 68 0.980 6 51
0.650000 1.800000 0.000000 0.0 0.0 1.0 55 61 68 0.980 6 51
0.750000 1.700000 0.000000 0.0 0.0 1.0 55 61 68 0.980 6 51
0.750000 1.800000 0.000000 0.0 0.0 1.0 55 61 68 0.980 6 51
0.850000 1.700000 0.000000 0.0 0.0 1.0 55 61 68 0.980 6 51
0.850000 1.800000 0.000000 0.0 0.0 1.0 55 61 68 0.980 6 51
0.950000 1.700000 0.000000 0.0 0.0 1.0 55 61 68 0.980 6 51
0.950000 1.800000 0.000000 0.0 0.0 1.0 55 61 68 0.980 6 51
1.050000 1.700000 0.000000 0.0 0.0 1.0 55 61 68 0.980 6 51
1.050000 1.800000 0.000000 0.0 0.0 1.0 55 61 68 0.980 6 51
1.150000 1.700000 0.000000 0.0 0.0 1.0 55 61 68 0.980 6 51
1.150000 1.800000 0.000000 0.0 0.0 1.0 55 61 68 0.980 6 51
1.250000 1.700000 0.000000 0.0 0.0 1.0 55 61 68 0.980 6 51
1.250000 1.800000 0.000000 0.0 0.0 1.0 55 61 68 0.980 6 51
1.350000 1.700000 0.000000 0.0 0.0 1.0 55 61 68 0.980 6 51
1.350000 1.800000 0.000000 0.0 0.0 1.0 55 61 68 0.980 6 51
1.450000 1.700000 0.000000 0.0 0.0 1.0 55 61 68 0.980 6 51
1.450000 1.800000 0.000000 0.0 0.0 1.0 55 61 68 0.980 6 51
1.550000 1.700000 0.000000 0.0 0.0 1.0 55 61 68 0.980 6 51
1.550000 1.800000 0.000000 0.0 0.0 1.0 55 61 68 0.980 6 51
-1.550000 2.950000 0.000000 0.0 0.0 1.0 55 61 68 0.980 6 52
-1.550000 3.050000 0.000000 0.0 0.0 1.0 55 61 68 0.980 6 52
-1.450000 2.950000 0.000000 0.0 0.0 1.0 55 61 68 0.980 6 52
-1.450000 3.050000 0.000000 0.0 0.0 1.0 55 61 68 0.980 6 52
-1.350000 2.950000 0.000000 0.0 0.0 1.0 55 61 68 0.980 6 52
-1.350000 3.050000 0.000000 0.0 0.0 1.0 55 61 68 0.980 6 52
-1.250000 2.950000 0.000000 0.0 0.0 1.0 55 61 68 0.980 6 52
-1.250000 3.050000 0.000000 0.0 0.0 1.0 55 61 68 0.980 6 52
-1.150000 2.950000 0.000000 0.0 0.0 1.0 55 61 68 0.980 6 52
-1.150000 3.050000 0.000000 0.0 0.0 1.0 55 61 68 0.980 6 52
-1.050000 2.950000 0.000000 0.0 0.0 1.0 55 61 68 0.980 6 52
-1.050000 3.050000 0.000000 0.0 0.0 1.0 55 61 68 0.980 6 52
-0.950000 2.950000 0.000000 0.0 0.0 1.0 55 61 68 0.980 6 52
-0.950000 3.050000 0.000000 0.0 0.0 1.0 55 61 68 0.980 6 52
-0.850000 2.950000 0.000000 0.0 0.0 1.0 55 61 68 0.980 6 52
-0.850000 3.050000 0.000000 0.0 0.0 1.0 55 61 68 0.980 6 52
-0.750000 2.950000 0.000000 0.0 0.0 1.0 55 61 68 0.980 6 52
-0.750000 3.050000 0.000000 0.0 0.0 1.0 55 61 68 0.980 6 52
-0.650000 2.950000 0.000000 0.0 0.0 1.0 55 61 68 0.980 6 52
-0.650000 3.050000 0.000000 0.0 0.0 1.0 55 61 68 0.980 6 52
-0.550000 2.950000 0.000000 0.0 0.0 1.0 55 61 68 0.980 6 52
-0.550000 3.050000 0.000000 0.0 0.0 1.0 55 61 68 0.980 6 52
-0.450000 2.950000 0.000000 0.0 0.0 1.0 55 61 68 0.980 6 52
-0.450000 3.050000 0.000000 0.0 0.0 1.0 55 61 68 0.980 6 52
-0.350000 2.950000 0.000000 0.0 0.0 1.0 55 61 68 0.980 6 52
-0.350000 3.050000 0.000000 0.0 0.0 1.0 55 61 68 0.980 6 52
-0.250000 2.950000 0.000000 0.0 0.0 1.0 55 61 68 0.980 6 52
-0.250000 3.050000 0.000000 0.0 0.0 1.0 55 61 68 0.980 6 52
-0.150000 2.950000 0.000000 0.0 0.0 1.0 55 61 68 0.980 6 52
-0.150000 3.050000 0.000000 0.0 0.0 1.0 55 61 68 0.980 6 52
-0.050000 2.950000 0.000000 0.0 0.0 1.0 55 61 68 0.980 6 52
-0.050000 3.050000 0.000000 0.0 0.0 1.0 55 61 68 0.980 6 52
0.050000 2.950000 0.000000 0.0 0.0 1.0 55 61 68 0.980 6 52
0.050000 3.050000 0.000000 0.0 0.0 1.0 55 61 68 0.980 6 52
0.150000 2.950000 0.000000 0.0 0.0 1.0 55 61 68 0.980 6 52
0.150000 3.050000 0.000000 0.0 0.0 1.0 55 61 68 0.980 6 52
0.250000 2.950000 0.000000 0.0 0.0 1.0 55 61 68 0.980 6 52
0.250000 3.050000 0.000000 0.0 0.0 1.0 55 61 68 0.980 6 52
0.350000 2.950000 0.000000 0.0 0.0 1.0 55 61 68 0.980 6 52
0.350000 3.050000 0.000000 0.0 0.0 1.0 55 61 68 0.980 6 52
0.450000 2.950000 0.000000 0.0 0.0 1.0 55 61 68 0.980 6 52
0.450000 3.050000 0.000000 0.0 0.0 1.0 55 61 68 0.980 6 52
0.550000 2.950000 0.000000 0.0 0.0 1.0 55 61 68 0.980 6 52
0.550000 3.050000 0.000000 0.0 0.0 1.0 55 61 68 0.980 6 52
0.650000 2.950000 0.000000 0.0 0.0 1.0 55 61 68 0.980 6 52
0.650000 3.050000 0.000000 0.0 0.0 1.0 55 61 68 0.980 6 52
0.750000 2.950000 0.000000 0.0 0.0 1.0 55 61 68 0.980 6 52
0.750000 3.050000 0.000000 0.0 0.0 1.0 55 61 68 0.980 6 52
0.850000 2.950000 0.000000 0.0 0.0 1.0 55 61 68 0.980 6 52
0.850000 3.050000 0.000000 0.0 0.0 1.0 55 61 68 0.980 6 52
0.950000 2.950000 0.000000 0.0 0.0 1.0 55 61 68 0.980 6 52
0.950000 3.050000 0.000000 0.0 0.0 1.0 55 61 68 0.980 6 52
1.050000 2.950000 0.000000 0.0 0.0 1.0 55 61 68 0.980 6 52
1.050000 3.050000 0.000000 0.0 0.0 1.0 55 61 68 0.980 6 52
1.150000 2.950000 0.000000 0.0 0.0 1.0 55 61 68 0.980 6 52
1.150000 3.050000 0.000000 0.0 0.0 1.0 55 61 68 0.980 6 52
1.250000 2.950000 0.000000 0.0 0.0 1.0 55 61 68 0.980 6 52
1.250000 3.050000 0.000000 0.0 0.0 1.0 55 61 68 0.980 6 52
1.350000 2.950000 0.000000 0.0 0.0 1.0 55 61 68 0.980 6 52
1.350000 3.050000 0.000000 0.0 0.0 1.0 55 61 68 0.980 6 52
1.450000 2.950000 0.000000 0.0 0.0 1.0 55 61 68 0.980 6 52
1.450000 3.050000 0.000000 0.0 0.0 1.0 55 61 68 0.980 6 52
1.550000 2.950000 0.000000 0.0 0.0 1.0 55 61 68 0.980 6 52
1.550000 3.050000 0.000000 0.0 0.0 1.0 55 61 68 0.980 6 52
